<?xml version="1.0" encoding="UTF-8"?>
<svg id="Layer_2" data-name="Layer 2" xmlns="http://www.w3.org/2000/svg" viewBox="0 0 331.81 493.31">
  <defs>
    <style>
      .cls-1 {
        stroke-width: 0px;
      }
    </style>
  </defs>
  <g id="katman_1" data-name="katman 1">
    <g id="MmfiTv">
      <path class="cls-1" d="m98.43,273.53c-5.32-2.01-11.06-3.1-15.49-6.49-3.5-2.67-6.04-1.88-9.38-.21-5.74,2.87-11.7,5.28-17.57,7.9-4.46,2-8.54,4.56-12.08,7.98-3.34,3.24-4.68,2.94-6.22-1.55-3.72-10.84-2.49-21.5,1.88-31.83,4.33-10.26,11.13-18.63,20.48-24.82,1.61-1.07,1.6-1.09,2.22-3.14-1.45-.77-2.13.55-2.99,1.18-7.06,5.13-14.63,8.68-23.66,8-2.98-.22-5.61,1.15-8.28,2.21-1.08.43-2.21,1.28-3.26.21-1.1-1.12-.66-2.49-.02-3.66,1.24-2.26,2.6-4.47,4.09-7.03-4.22-1.07-8.46.1-12.44-1.33-2.71-.97-5.48-1.76-8.07-3.05-2.37-1.18-2.65-2.66-.82-4.61,2.58-2.76,5.12-5.57,7.87-8.58-1.69-1.98-4.89-2.46-7.14-4.37-1.39-1.18-3-2.11-4.52-3.13-2.74-1.83-2.44-3.69-.11-5.63,2.53-2.1,5.19-3.99,8.18-5.39,1.16-.54,2.53-.73,3.47-2.28-3.44-3.4-7.94-5.24-11.96-7.78-3.48-2.2-3.52-3.19.13-5.3,4.64-2.68,9.33-5.29,13.9-7.86-.03-2.13-1.64-2.55-2.68-3.41-3.47-2.86-6.63-5.99-8.37-10.24-1.64-4.02-.92-5.48,3.18-6.6,1.64-.45,3.32-.73,4.99-1.07,1.65-.34,3.41-.29,4.96-1.24.61-1.63-.69-2.68-1.24-3.91-1.41-3.15-2.45-6.36-2.26-9.86.22-3.94,1.42-4.9,5.22-3.86,3.46.94,6.91,1.22,11.2.6-3.07-5.07-4.02-10.37-4.13-15.87,0-.5-.7-1.1-1.21-1.46-6.47-4.43-12.56-9.5-20.55-11.22-3.68-.79-4.1-2.08-1.9-5.18,5.13-7.2,12.51-10.95,20.77-13.31,1.46-.42,3.13-.3,4.79-1.76-4.12-5.2-7.44-10.97-13.25-14.66-3.45-2.19-3.52-3.3-.07-5.61,6.8-4.57,14.42-5.15,22.28-3.95,4.41.67,8.5,2.37,12.38,4.29.45-.48.74-.65.78-.86,1.01-5.23,1.02-5.34,6.55-4.54,4.55.66,9.17.06,13.56,1.13,1.48-1.68.84-3.46.93-5.09.22-3.93,1.51-5.18,5.43-4.8,5.97.57,11.95,1.19,17.43,4.13,1.99-3.69,1.7-7.37,2.77-10.71,1.43-4.52,1.93-4.76,5.74-2.16,3.65,2.49,7.37,4.88,12.1,6.24,1.89-8.72,5.89-16.11,11.59-22.59.26-.3.49-.62.75-.91,4.4-5.07,5.39-4.92,7.58,1.4,1.13,3.27,2.69,6.24,5.06,8.78,2.86,3.07,4.35,7.06,6.48,10.41,1.92-.06,2.53-1.39,3.41-2.29,4.62-4.74,9.98-8.48,15.67-11.79,1.19-.69,2.5-1.79,3.97-.69,1.39,1.03.52,2.39.26,3.62-1.12,5.27,2.24,9.45,2.9,14.7,3.83-1.43,6.44-3.64,9.18-5.52,1.5-1.03.73-2.95.49-4.43-1.36-8.49-.42-17.35-4.2-25.49-1.06-2.27,1.1-2.93,2.85-3.1,3.9-.37,7.56.57,10.96,2.47,8.37,4.69,13.61,11.7,15.59,21.12.28,1.35.05,2.93,1.76,3.95,3.2-4.03,5.67-8.33,6.39-13.53.19-1.36-.06-3.22,1.75-3.58,1.89-.37,2.76,1.34,3.49,2.67,1.3,2.36,2.38,4.85,3.5,7.19,1.55.01,1.57-1.17,1.92-1.9,2.92-6.14,7.67-10.57,13.25-14.19,3.34-2.17,4.6-1.68,5.48,2.12.88,3.81,1.58,7.66,2.43,11.87,4.69-2.12,8.89-5.01,13.67-6.68,4.24-1.48,4.68-1.14,5.65,3.36,1.01,4.7,0,9.35-.18,14.59,4.61-.86,7.95-3.45,11.66-5.14,1.07-.49,2.05-1.16,3.1-1.71,1.11-.59,2.17-1.85,3.54-.89,1.26.88.86,2.37.82,3.65-.21,6-.59,12.01-.17,18.37,3.83-1.09,7.28-2.16,10.78-3.04,3.09-.78,6.19-.71,9.33.09,2.75.7,3.56,2.11,2.93,4.87-.96,4.21-2.83,8.09-4.43,12.01,1.75,1.37,3.51,1.02,5.16,1.13,3.45.24,6.74.93,9.66,2.91,3.66,2.5,3.94,4.6.62,7.47-2.87,2.48-4.54,5.66-6.31,8.85,1.38,1.74,3.25,1.18,4.83,1.34,4.19.42,7.83,2.06,11.1,4.6,1.92,1.49,2.21,3.5-.41,4.02-9.57,1.9-16.48,8.38-24.17,13.51-4.97,3.32-10.36,5.54-16.89,6.5,1.42,3.6,1.59,7.2,2.12,10.75.3,2.02,1.41,2.23,3.09,1.69,4.04-1.3,8.2-1.55,12.42-1.59,2.66-.02,3.95,1.08,3.91,3.69-.03,1.96.29,4.11-.38,5.86-2,5.28-.81,10.67-1.18,16.36,4.88.9,9.56,3.15,14.68.3,2.96-1.64,4.19-.5,3.83,3.11-.66,6.61-2.66,12.78-6.41,18.12.8,2.05,2.48,2.44,3.92,2.74,3.66.77,3.66,2.65,2.09,5.39-2.87,5.02-5.81,10.03-10.07,13.99-2.12,1.97-2.12,3.44-.39,5.6,1.71,2.14,3,4.61,4.51,6.91,1.4,2.13,1.1,3.82-.95,5.43-3.56,2.79-7.37,5.1-11.8,6.05-2.74.59-4.14,1.72-3.99,4.7.07,1.37-.59,2.79-.99,4.16-.67,2.3-2.12,3.16-4.49,2.44-4.61-1.38-9.27-.55-14.58-.5,2.71,3.79,5.76,6.65,7.69,10.33,2.71,5.19,2.29,6.06-3.42,6.14-7.3.09-13.26,3.13-18.85,8.18,4.62,3.29,9.22,5.81,12.84,9.64,2.65,2.8,4.9,5.82,6.49,9.31,1.46,3.19.64,4.51-2.76,4.41-6.27-.18-11.72,1.71-16.89,5.32-6.74,4.72-14.08,8.5-21.38,11.72-.28,1.9.79,2.64,1.54,3.48,10.07,11.25,15.26,24.26,14.46,39.5-.15,2.78-.63,5.48-1.57,8.07-.77,2.14-2.32,3.11-4.14,1.17-5.63-6-12.72-8.08-20.68-9.13-13.29-1.76-26.2-5.24-38.36-11.1-.34-.16-.76-.13-1.09-.18-.75.28-1.03.85-1.19,1.51-3.99,16.06-7.03,31.86-2.94,48.74,5.39,22.24,11.12,44.2,21.91,64.54,3.63,6.85,7.71,13.42,12.86,19.26,2.4,2.73,2.69,5.6.88,8.65-2.63,4.41-6.33,4.98-10.02,1.41-5.72-5.54-9.83-12.23-13.41-19.29-.85-1.67-1.36-3.61-3.63-5.35.59,7.84,1.17,14.94,1.64,22.05.41,6.15.8,12.3.99,18.46.15,4.55-1.47,6.09-5.75,6.03-4.09-.06-5.96-1.87-5.81-6.15.76-22.18-2.91-43.88-6.98-65.54-.14-.76-.47-1.49-.81-2.19-.14-.29-.53-.46-1.52-1.27,0,7.29-.18,13.92.04,20.54.49,14.55,1.58,29.05,4.41,43.38.93,4.7-.81,6.91-5.81,7.95-4.06.84-6.74-.78-7.73-5.16-2.27-10-3.37-20.16-3.37-30.42,0-1.55,0-3.1-.35-4.7-2.23,3.63-2.2,7.8-2.94,11.74-2.09,11.2-4.01,22.43-6.76,33.5-1.04,4.2-3.68,6.11-6.79,5.35-4.32-1.06-6.59-4.89-5.49-9.33,2.35-9.54,4.87-19.04,7.05-28.62,1.99-8.78,3.63-17.64,4.56-26.77-.45,1.05-.99,2.06-1.32,3.14-4.32,14.32-9.56,28.3-15.48,42.02-2.25,5.21-2.99,5.63-6.6,3.9-5.91-2.83-7.27-5.39-4.99-9.86,8.46-16.54,14.28-34.04,19.1-51.91,7.12-26.39,11.22-53.3,13.82-80.47.1-1.02.01-2.05.01-3.03-1.8-.89-2.92.37-4.07,1.03-11.43,6.51-23.83,10.19-36.7,12.3-6.18,1.02-11.52,3.23-15.93,7.76-3.03,3.12-4.12,2.8-5.47-1.4-2.97-9.18-1.43-18.13,1.5-26.99.33-.99.7-1.96,1-2.96.06-.21-.08-.49-.22-1.15-4.68.95-9.12,2.87-13.87,3.51-6.77.9-13.55,1.67-20.37,1.51-6.02-.14-11.36,1.63-16.37,4.73-3.21,1.98-4.24,1.67-4.91-2.1-1.33-7.41.63-14.39,3.74-20.96,8.15-17.2,22.47-26.79,40.27-31.9,1.43-.41,3.18-.21,4.2-2.06Zm-57.2,7.46c7.05-6.84,15.63-9.88,23.91-13.42,13.64-5.84,26.37-13.17,37.65-23.25-1.18-2-3.5-3.11-5.3-4.72-3.64-3.25-6.29-2.88-9.03,1.1-2.6,3.79-5.31,7.45-9.13,10.11,2.36-3.55,5.31-6.72,6.61-11.62-5.11.75-9.04,3.04-13.08,5.02-2.54,1.24-4.19,2.79-3.89,6.02.18,1.92-.68,3.87-2.2,6.13.03-2.89,1.37-5.06-.1-7.11-1.94-.46-2.73,1.51-4.32,1.79-1.81-3.54-4.96-.32-7.55-1.74,10.15.2,16.92-6.66,25.21-11.08-3.12-2.58-6.64-1.35-10.13-1.91,7.23-4.18,14.86,2.5,21.68-1.78-1.76-3.88-4.85-7.4-9.76-11.75-1.86-1.65-3.64-2.09-6.07-1.53-19.22,4.44-35.7,23.38-37.11,43.05-.39,5.43-.74,10.98,2.58,16.69Zm66.54-3.66c-2.59-.9-4.66-.47-6.71-.14-8.39,1.34-16.24,4.21-23.44,8.68-11.78,7.32-20.48,17.14-23.73,30.97-.79,3.37-2.16,6.99-.15,10.72,4.19-1.73,7.84-3.95,12.14-4.17,4.19-.22,8.37-.53,12.56-.63,6.73-.15,13.31-1.15,19.78-2.95,6.13-1.71,11.72-4.07,15.52-9.79,3.21-4.83,7.66-8.66,12.92-11.27,2.67-1.33,3.21-3.03,2.32-5.18-11.18,1.83-20.25,7.54-28.56,14.75.42-2.93,5.41-3.24,3.28-6.87-1.93-3.28-5.04-.78-7.53-.62-4.03.26-7.72,1.42-8.48,6.42-.19,1.28-1.18,2.43-2.61,3.46.23-2.38,2.22-4.05,1.16-6.38-4.39-.1-7.42,3.43-12.35,4.36,2.95-1.9,5.08-3.27,7.66-4.93-3.01-2.04-5.84-1.31-8.45-2.31,9.83.89,19.15-.68,28.25-5.15-3.22-2.81-7.02-2.76-11.1-4.03,3.63-.2,6.48-.37,9.32.48,1.19.36,2.89.85,3.24-1.01.92-5.01,2.94-9.66,4.96-14.39Zm143.57,38.27c-3.17.38-6.2.73-8.53-1.52-1.25,1.32-.21,2.73-1.1,3.93-.55-4.44-1.86-8.12-6.24-10.22-3.67-1.76-6.88-4.48-11.2-5.71-.56,4.09.94,7.23,1.88,11.16-3.5-3.91-3.24-8.9-5.84-13.06-1.81,3.63.97,7.02-1.64,9.93-1.79-.56-3.48-1.31-5.25-1.6-1.74-.29-3.43-1.52-5.27-.59-.91,2.11,1.76,3.36,1.23,5.45-1.64-.56-2.56-1.88-3.02-3.08-1.57-4.08-5.2-5.18-8.65-6.75-1.99-.9-3.02-.33-4.22,1.28-4.23,5.66-4.29,5.63,1.73,9.68,1.19.8,2.44,1.54,3.72,2.21,11.98,6.31,24.88,9.74,38.16,11.65,7.65,1.1,15.01,2.48,20.98,7.86.36.32.92.41,1.38.61,6.95-14.23-6.48-45.15-25.28-53.15-2.51,9.22-9.76,3.65-14.92,4.89-1.77,6.28-1.18,7.53,4.45,10.32,2.32,1.15,4.59,1.61,7.19,1.26,2.03-.27,4.2-.49,6.68.41-2.02,1.39-4.3.18-5.8,2.52,6.51,4.2,10.94,11.37,19.55,12.54Zm-114.58.9c-1.97-4.24-3.87-8.06-5.54-12-1.69-3.98-2.25-4.3-5.77-1.67-10.26,7.67-16.98,17.75-19.72,30.27-1.25,5.71-1.74,11.57.53,17.13,1.74.3,2.39-.89,3.31-1.55,3.32-2.38,6.74-4.71,10.85-5.28,5.21-.72,10.31-1.84,15.36-3.23,10.39-2.85,20.59-6.22,29.32-12.85,7.05-5.35,7.71-9.9,2.58-16.43-1.03-1.31-1.83-2.9-4.05-2.39-2.09.48-2.54,2.1-2.97,3.74-.86,3.2-2.28,6.04-4.61,8.4.64-3.37,3.15-6.35,1.59-10.45-3.03,1.05-5.81,2.1-8.66,2.98-2.83.87-4.63,2.37-5.45,5.47-.86,3.26-2.73,6.17-5.87,9.05,1.13-3.48,3.2-5.87,3.16-9.34-5.08-.46-8.07,3.73-12.42,5.41,1.14-2.14,3.65-2.35,4.24-4.6-1.93-1.8-4.64-.44-6.84-1.65,3.58-1.04,7.14-.35,10.97-1.02ZM218.55,56.89c-1.32-2.15-3.19-2.45-4.94-2.76-11.77-2.06-23.02-.05-33.62,5.11-9.14,4.45-14.03,12.29-15.64,22.23-.32,1.95-1.03,3.93-.17,6.23,2.81-1.75,2.19-5.26,4.67-7.12-.64,4.17-3.12,7.76-1.9,12.12,2.27-.94,2.69-3.58,5.17-4.71-1.67,4.25-5.51,7.48-2.79,12.61,1.65-1.93,2.97-3.53,4.34-5.07,4.95-5.53,10.33-10.8,17.68-12.59,6.52-1.58,10.73-5.45,14.55-10.48,4.06-5.34,6.02-12.32,12.64-15.58Zm-119.72,116.77c4.92-1.39,10.12-1.1,14.01-5.39-1.69-1.56-1.39-5.73-5.36-3.85-5.24,2.49-10.68,3.5-16.41,3.08-1.95-.14-3.6.23-5.02,1.64-11.66,11.54-17.21,25.12-13.78,41.63.4,1.94.75,4.08,2.97,5.45,6.45-7.42,15.39-10.91,23.46-15.71,2.95-1.75,4.16-3.57,2.73-6.95-.96-2.27-1.43-4.76-2.09-7.16-.81-2.96-.45-4.7,3.41-4.54,5.23.22,10.44.41,15.55,1.59,1.66.39,3.09.28,4.25-1.14.72-.87,1.32-1.8.56-2.81-2.25-2.99-4.57-5.94-7.81-8.05-2.27,1.8-2.22,4.77-4.15,6.66-.6-1.82,1.28-3.27-.52-5.33-5.41,3.99-13.75,4.95-13.33,14.58.03.66-.04,1.68-1.06,1.95-.51-1.53.67-3.43-1.01-4.76-2.23.3-2.76,2.74-4.71,3.58-1.47-2.03-3.7-.5-6.02-.73,3.47-2.5,7.95-1.63,10.39-5.27,2.02-3.02,5.81-4.55,7.88-8.27-1.7-.09-2.83-.15-3.96-.21Zm117.78,132.02c-.39-5.47-.89-10.4-1.07-15.34-.51-14.31-9.7-24.84-23.73-26.98-1.33-.2-2.87-.79-3.86,1.27,1.36,1.22,2.74,2.47,4.57,4.12q-10.48-3.46-10.73,7.57c-1.91-2.18-.48-5.52-2.66-7.47-2.19.16-2.12,1.85-2.25,3.2-.89,9.4,2.45,17.01,10.18,22.41,5.61,3.91,11.82,6.78,18.33,8.89,3.44,1.12,6.94,2.15,11.21,2.33Zm-76.41-231.03c-1.22-3.33-3.69-5.76-4.08-9.33,3.26,3.83,4.63,9.01,10.06,10.51.68-2.11-.55-3.2-1.04-4.48-3.9-10.14-6.46-20.28-.42-30.55.84-1.42.32-2.68-.13-4.1-2.54-8.02-10.05-13.02-12.25-21.94-9.27,10.09-15.13,20.39-12.86,33.83,1.81,10.71,8.9,22.99,14.55,24.93.01-1.51-1.99-2.25-1.59-4.95,1.41,1.7,2.22,2.91,3.26,3.87,1.09,1,2.03,2.45,4.51,2.2Zm.7,139.94c2.13-5.53-.35-14.36-5.51-19.21-8.54-8.01-19.16-10.28-30.45-10.4-2.18-.02-2.65,1.17-2.1,3.12,1.66,5.92,2.77,12.05,5,17.74,4.03,10.28,11.97,16.58,22.48,19.68,2.7.79,4.59.12,4.73-3.19-2.2-1.09-4.24-2.1-6.27-3.11,1.97-.07,3.69.48,5.45.85,3.66.76,5.3-.84,4.47-4.47-.51-2.21-1.3-4.35-2.09-6.94,2.33,1.62,2.34,4.25,4.29,5.94Zm114.4,51.41c-7.87-6.33-15.13-2.48-22.77.47,1.66,3.47,4.8,4.79,7.94,7.41-5.19-.89-8.26-4.33-12.72-6.58,2.28,8.13,4.8,10.23,10.51,15.01,5.18,4.34,9.48,3.54,14.4.57.56-.34,1.11-.72,1.7-.98,10.3-4.47,18.36-13.98,30.75-13.8.14,0,.28-.39.59-.86-3.21-6.65-8.79-11.03-14.96-14.93-3.33-2.11-6.22-2.39-9.75-.17-3.75,2.35-7.97,3.96-12.01,5.83-1.34.62-3.03.6-4.03,2.22,5.35,1.79,8.32-3.39,12.8-4.02-.34,1.4-2.2,1.35-2.11,3.26,3.82.64,7.68.65,11.57-.44-.13,1.82-2.26,1.17-2.41,2.84.44.69.97,1.51,1.5,2.34-4.45-4.69-9.59-4.2-15.2-2.49,1.01,2.11,3.22,2.26,4.19,4.34Zm-94.77-182.82c.53-6.91,5.23-12.36,5.82-19.11.42-4.8,3.46-8.71,4.61-13.28,2.31-9.21-2.47-17.25-3.91-26.59-8.97,5.66-16.74,11.58-21.16,20.98-2.53,5.39-1.89,10.86-.86,16.51,1.26,6.92,5.83,11.75,10.03,17.48.82-3.29-.33-6.56,1.21-9.29.55,4.54-.15,9.52,4.26,13.3Zm-1.72,197.36c-1.24-4.09.43-8.12-3.9-9.79-4.08-1.57-5.77,2.46-8.75,4.02.26-2.5,2.41-3.42,3.03-5.25-2.37-1.88-2.41-1.91-4.12-.38-2.85,2.55-5.26,5.51-7.27,8.73-7.84,12.62-7.82,22.75,2.29,36.49,8.78-5.93,17.85-11.51,22.38-21.8,2.54-5.78,3.61-11.75,1.35-17.92-.67-1.84-1.55-3.41-4.2-2.3-.23,2.37-.47,4.81-.81,8.2ZM49.81,89.85c1.97,1.64,3.11,2.59,4.91,4.09-1.3-4.47-2.34-8.07-3.39-11.67-.47-1.62-1.79-2.07-3.22-2.51-12.74-3.87-24.62-1.93-35.6,5.45-2.32,1.56-4.8,3.19-5.77,6.72,7.65,1.86,13.75,6.36,19.97,10.67,5.72,3.96,11.6,7.65,18,10.41,2.54,1.1,5.08,2.73,8.39,1.59-1.74-4.98-3.71-9.4-10.46-9.82,2.07-1.09,3.52-.21,4.83-1.28.02-1.48.88-2.89,1.55-4.01-4.24-5.26-8.76-2.45-13.27-.89,1.25-1.47,3.59-1.44,3.94-3.83-2.32-1.82-5.5-1.64-8.17-3.15,1.88-.8,3.57.59,5.22-.3.12-2.18-2.45-2.68-2.61-4.8,5.03,6.23,12.05,8.81,19.45,11.46.18-3.23-2.37-4.8-3.76-8.16Zm140.8,225.52c-1.47,1.05-1.44,2.44-1.71,3.7-4.46,20.5-7.15,41.26-9.79,62.05-2.77,21.88-4.73,43.79-4.39,65.83.16,10.19.68,20.43,3.49,30.37.62,2.18,1.84,3.06,4.01,2.72,2.04-.32,3.39-1.44,3.55-3.58.08-1.03-.09-2.09-.28-3.12-5.32-28.47-4.81-57.14-2.43-85.8,1.84-22.21,5.62-44.17,10.82-65.84.82-3.41.05-5.24-3.27-6.34Zm7.21-92.66c-.05,3.3,1.33,5.03,4.9,4.77,4.67-.33,9.01-1.56,12.89-4.24,10.55-7.3,11.07-19.52,15.48-30.3-5.72-1.83-10.96-2.6-16.33-2.62-9-.03-9.87.42-13.16,8.66-2.36,5.89-6.51,10.32-11.65,14.84,4.58,2.24,5.41-3.13,8.4-3.01-.14,1.61-1.59,2.3-2.41,3.38-2.87,3.78-2.27,5.51,2.33,6.29,1.78.3,3.56.57,5.61.89-2.03,1.18-4.21.03-6.07,1.33Zm3.36-79.74c-1.77-12.41-6.7-21.92-15.8-29.04-3.33-2.61-6.98-4.6-11.45-4.53-5.15.09-6.32,1.15-6.66,6.51,1.13.34,2.3.68,4.17,1.24-3.64,1.08-7.53.87-7.6,5.5,1.1,1.72,3.76,1.31,5.06,3.4-7.35-1.63-10.23-.35-11.91,5.18,5.53,1.6,10.13,4.68,13.93,9.02,1.57,1.79,3.76,2.19,6.04,2.37,7.93.62,15.79-2.29,24.23.36Zm-119.76,75.69c7.34,5.05,11.1,12.33,16.98,17.7,2.31,2.11,4.93,3.89,7.46,5.76,1.29.95,2.75,1.53,4.42,1.26,5.76-.95,11.49-.64,17.21.36,1.2.21,2.8.83,3.23-1.08.36-1.57-.76-2.42-2.06-2.92-2.75-1.07-5.52-2.08-8.79-3.31,3.99-.17,7.25,1.62,11.04,1.12-1.21-3.7-4.94-2.95-6.77-5.36,2.49-.17,4.59,1.72,6.96.81.63-1.15,1.12-2.32.62-4-8.72-1.67-15.68-6.54-21.56-13.16-.33-.37-.82-.73-1.29-.84-9.25-2.19-18.04-.98-27.46,3.67Zm99.03-111.58c2.46,1.63,5.04,3.12,7.36,4.94,2.46,1.93,4.9,2.07,7.71,1.02,6.16-2.3,11.34-6.01,15.46-11.03,2.62-3.18,5.53-5.89,8.96-8.12,1.02-.66,2.42-1.02,2.68-2.5-15.45-12.85-44.01-6.68-49.33,10.93,1.31-.69,2.38-1.27,3.74-1.99-.58,2.52-3.85,2.89-3.46,5.86,4.38.62,7.76-3.44,12.27-2.76-1.66,1.54-4.29,1.15-5.39,3.64Zm.74,57.18c-4.98-7.51-7.66-16.14-13.5-22.97-3.43-4-7.84-6.47-13.1-7.34-2.55-.42-4.53.33-6.18,2.67,1.53,1.1,2.9,2.1,4.28,3.09-2.68-.49-5.06-1.67-7.7-1.77-1.18-.04-2.48.06-3.21,1.1-.88,1.23.24,2.18.81,3.16.83,1.43,2.32,2.43,2.79,4.25-1.71-.09-1.99-2.67-3.91-2.09.42,6.82,1.36,9.15,4.45,13.01,7.97,9.97,21.8,10.69,35.29,6.9Zm28.31,80.44c-3.27,1.41-7.11.4-9.56,3.36,1.69,2.85,5.19,2.85,7.45,5.14-3.37.32-5.98-1.89-9.06-1.62.98,3.97,10.84,8.86,19.32,9.81,11.47,1.28,27.03-4.8,30.6-11.95-14-12.41-38.9-15.15-46.68-4.96,2.57.62,5.12-1.14,7.93.21Zm-34.66,75.07c-2.13,1.78-1.6,4.02-1.58,6.02.18,19.93-.53,39.8-2.54,59.65-2.3,22.69-5.76,45.19-10.69,67.46-2.35,10.61-5.05,21.13-7.64,31.68-.7,2.86.39,4.69,3.14,5.29,2.72.59,3.21-1.52,3.62-3.55,1.94-9.62,4.05-19.21,5.81-28.86,4.47-24.62,7.99-49.37,10.12-74.32,1.66-19.47,2.58-38.95,2.43-58.48-.01-2.02-.1-3.97-2.67-4.89Zm-66.66-183.2c-5.68-.88-11.36-.66-16.9.97-9.91,2.92-16.49,13.18-15.25,23.32.32,2.63,1.23,4.05,4.31,3.44,3.49-.69,7.04-.24,10.56.25,5.08.71,9.89-.39,14.5-2.52,1.85-.86,2.87-2.11,2.5-4.32-.97-5.8,1.56-10.45,5.06-14.74.52-.64,1.71-1.01.9-2.25-2.17-.13-3.64,1.81-6.38,2.13,1.51-1.37,2.58-2.34,3.96-3.59-2.45-.54-4.29.26-6.3.57.63-1.66,3.1-.9,3.03-3.25Zm23.83,112.15c-11.79-8.4-37.32.39-46.92,16.03,6.52,3.86,13.53,6.08,21.03,6.79,3.29.31,6.08-.73,8.54-3.14,4.9-4.83,10.92-7.59,17.69-8.79,1.35-.24,2.94-.1,4.11-2.03-3.6-4.4-8.34-1.49-12.54-2.1,3.02-.83,6.03-1.66,9.57-2.63-3.29-2.59-6.77-1.21-9.78-2.32,2.48-1.72,5.59.23,8.31-1.82Zm37.14-42.67c3.65,1.38,5.21.7,4.62-3.08-.28-1.8-.26-3.66-.21-5.49.3-10.95-4.84-19.65-11.67-27.5-3.06-3.52-7.57-2.48-9.42,1.64-1.13,2.51-2.38,4.96-3.57,7.43-5.19,10.73-2.71,20.71,6.86,27.66.95.69,1.88,1.56,3.23.1-.7-2.24-3.02-3.86-3.64-7.11,2.02,2.24,3.42,3.97,5.01,5.5,3.13,3.02,6.08,2.28,7.36-1.78.52-1.66.94-3.34,1.41-5.02.19.04.37.08.56.12-.18,2.43-.36,4.87-.55,7.51Zm-72.02-96.66c-6.46-13.86-27.69-16.57-45.76-5.62,3.03,6.92,6.7,13.47,11.95,19.04,1.63,1.73,2.77.36,3.94-.71,5.84-5.32,12.71-6.79,20.41-5.73,2.98.41,5.8,1.95,9.31,1.61-1.9-2.77-4.94-3.48-7.18-5.84,3.09.06,4.96,2.43,7.75,2.56.13-1.86-1.13-2.51-1.91-3.46-.78-.95-2.26-1.31-2.48-2.82,1.54-.33,2.39,1.78,3.97.98Zm43.09,365.74c20.85-46.8,32.58-95.12,29.85-146.68-1.56.82-1.34,1.98-1.41,2.98-1.19,18.46-3.8,36.73-7.23,54.9-5.27,27.89-12.74,55.09-25.04,80.8-2.32,4.86-2.14,5.29,3.83,8ZM100.28,124.4c-3.18-3.45-6.54-3.66-9.59-4.37-9.81-2.26-18.37-.64-24.82,7.99-2.73,3.66-5.76,7.1-8.4,10.85-1.42,2.02-1.35,3.39.63,4.94,3.64,2.85,7.54,5.1,11.88,6.75,3.03,1.15,4.46.34,5.55-2.6,3.21-8.64,9.95-12.82,18.73-14.06,2.97-.42,6-.39,9-.59.95-.07,2.19.44,2.63-1.52-3.71-2.51-8.23-1.79-12.4-2.93,2.37-.26,4.73-.51,7.63-.82-2.78-3.15-6.37-2.99-9.41-4.17,2.54-.53,4.96.24,8.55.54Zm1-90.17c-2.6,10.85-4.34,21.11-.49,31.37,2.84,7.59,8.72,11.85,16.47,13.66.76.18,1.56.36,2.04-.53.45-1.98-2.58-1.61-2.37-3.46,1.72.01,3.01,1.86,4.82.95.5-1.98-2.53-2.53-1.9-4.68q6.62,5.4,9.25,3.45c-.07-.25-.07-.55-.23-.73-7.72-8.86-12.35-19.01-12.84-30.87-.04-1-.44-1.77-1.33-2.23-4.26-2.21-8.53-4.42-13.41-6.94Zm122.17,51.17c16.09-10.3,17.27-39.24,2.19-52.93-1.75,7.52-8.96,11.16-11.84,17.96,2.65,1.79,5.63,2.16,7.9,4.05,2.34,1.96,2.16,3.64-.41,4.74-4.52,1.93-7.18,5.4-9.39,9.57-2.01,3.78-1.84,8.13,1.29,11.98,1.78-3.89.05-8.28,2.3-12.18.41,3.08-.38,5.84.62,8.51q5.97-2.8,7.52.73c2.44-.65,2.41-3.51,4.23-4.84,0,4.52-4.73,7.25-4.41,12.41Zm-99.5,55.35c-1.73-1.1-3.28-.92-4.66.41-1.79,1.72-3.7,3.37-5.2,5.31-2.8,3.63-4.77,7.65-2.97,12.38,2.83,7.45,8.81,12.35,14.49,18.16,3.12-5.35,6.06-10.09,9.87-14.24,4.81-5.24,5.3-15.48,1.29-21.28-.69-1-1.44-1.43-2.62-1.11-1.3.35-1.46,1.28-1.41,2.43.06,1.32.01,2.64.01,3.96-.63-.7-.9-1.43-1.11-2.16-.43-1.5-.62-3.23-2.43-3.7-1.83-.48-2.86.91-3.91,2.08-.99,1.1-1.98,2.21-3.23,3.62-.15-2.48,2.12-3.48,1.88-5.85Zm-18.12,157.4c1.16-.21,1.74-.16,2.13-.41,3.44-2.24,7.09-3.56,11.25-4.17,4.46-.66,9.06-2.87,10.84-7.05,3.24-7.6,7.75-14.18,13.02-20.37.11-.12-.06-.48-.12-.87-3.23-1.09-5.81,1.45-8.93,1.82,1.15-2.49,4.35-2.29,6.09-5.24-10.36.04-18.77,3.03-24.97,10.42-6.11,7.28-10.11,15.6-9.32,25.88Zm92.54-174.27c3.21,6.32,4.63,13.09,6.71,19.66.59,1.86,1.48,2.78,3.31,3.34,6.34,1.95,11.3,5.89,15.47,11,1.24,1.52,1.94,3.67,4.22,4.55,2.05-3.53-1.61-5.84-1.57-8.94,1.62.43,1.63,2.95,3.64,2.64.85-1.61-.01-3.12-.17-4.62-.15-1.46-.59-2.89-.91-4.34.17-.05.33-.1.5-.14.79,1.68,1.58,3.36,2.5,5.31,4.98-13.68-15.3-30.8-33.69-28.45Zm62.78,17.68c14.01-13.89,14.78-38.02,1.29-44.74-2.03,5.39-6.91,8.76-9.64,13.71-1.33,2.41-2.01,4.54-.64,7.33,1.94,3.95,2.26,8.19,1.14,12.62-1.18,4.65-3.1,9-5.2,13.89,4.53-.89,5.82-4.68,8.69-6.71-.86,1.77-1.71,3.53-2.79,5.75,2.93-.35,4.02-2.48,5.7-3.25.86.25.19,1.44,1.44,1.39Zm-77.99,58.34c.2.06.39.13.59.19-.29,1.4-.64,2.79-.87,4.19-.34,2.07-1.55,4.1,1.24,5.82,2.95,1.81,4.81.62,6.89-1.23,10.08-8.99,13.33-24.87,7.49-37.69-4.45,3.02-9.52,4.9-13.69,8.33-6.99,5.75-10.46,17.6-7.68,26.12.33,1.01.53,2.16,1.86,2.2,1.37.04,1.53-1.18,1.9-2.14.74-1.93,1.51-3.86,2.27-5.78Zm67.38,53.18c1.71.62,2.78-.39,3.91-.89,4.92-2.19,9.7-4.7,14.1-7.77,6.01-4.2,12.21-7.65,19.79-7.72.28,0,.56-.48.81-.71-1.4-4.75-10.28-13.85-14.72-15.18-.81-.24-1.6-.35-2.17.34-1.71,2.05-3.36,4.15-5.03,6.22,1.51,1.37,2.57-.77,3.69-.09-.04,4.09-6.51.56-5.79,5.45-1.53-.74-2.81-1.54-4.21-.32-.91.79-1.95.93-2.79-.05-2.48-2.88-4.81-.79-7.38-.16,1.17,3.03,4.55,2.85,6.59,5.8-3.39-1.45-6.06-2.42-8.57-3.7-3.14-1.6-5.73-.5-8.76,1.29,2.83,3.95,6.93,5.93,10.35,8.8-1.32-.38-2.64-.76-4.36-1.25,1.66,3.63,10.41,3.47,4.55,9.93Zm-16.62-150.79c-.58,1.71-1.06,3.46-1.77,5.12-2.97,6.96-4.27,13.92-.89,21.2.8,1.72.7,3.84,1.17,5.73,1.22,4.92,2.53,9.83,3.96,15.35,2.88-2.52,2.37-5.64,3.76-7.94,1.17,1.11-.38,2.97,1.22,3.84,14.94-13.54,11.06-36.28-7.45-43.29Zm-43.98,262.59c-.33-.05-.67-.09-1-.14-.98,4.1-2.15,8.36-1.36,12.53,4.1,21.82,10.06,43.1,19.68,63.2,3.63,7.58,7.78,14.88,13.74,20.94.97.99,1.97,2.39,3.64,1.79,1.55-.55,2.59-1.87,2.95-3.46.34-1.52-.53-2.78-1.46-3.92-15.88-19.59-24.33-42.61-30.68-66.57-2.13-8.05-3.69-16.25-5.52-24.38ZM267.14,48.55c-.81,2.14-1.61,4.29-2.42,6.43-.52,1.39-.99,2.79.57,3.87,1.53,1.05,2.74.12,3.91-.72,1.24-.88,2.42-1.83,3.63-2.75-.52,1.6-1.53,2.73-2.51,3.89-.78.92-2.44,1.6-1.12,3.18,1.32,1.59,2.62.54,3.78-.27,6.03-4.22,9.58-9.99,10.21-17.34.46-5.48.58-10.98.82-16.48.03-.77-.01-1.6-1.14-2.23-4.62,2.23-9.34,4.72-14.24,6.82-7.27,3.11-11.04,8.89-13.15,16.13-.7,2.4-.03,3.75,2.48,4.16,1.93-1.66,1.38-4.63,3.51-6.05.06,2.8-2.38,5.61.16,8.61,2.52-1.99,2.84-5.19,5.51-7.26Zm-95.74,234.21c-1.2-3.47-1.17-6.34-1.18-9.22,0-1.35-.46-2.39-2.06-2.14-1.54.24-1.79,1.27-1.39,2.64,2.18,7.57,1.04,14.77-2.59,21.63-.98,1.86-.86,3.39.22,5.12,3.7,5.9,7.82,11.47,12.73,16.42.72.73,1.46,1.55,3.12,1.32,2.16-4.94,5.3-9.5,9.29-13.56,3.09-3.15,2.85-3.73-1.02-5.99-9.61-5.61-14.92-13.68-14.59-25.07.03-.95.48-2.17-1.21-2.64-1.68,3.44-1,7.16-1.32,11.48Zm52.3-114.84c-.47-10-7.27-14.48-14.82-17.66-8.32-3.51-16.51-1.3-25.13,2.42,5.12,4.33,8.62,9.38,13.18,13.07,2.3,1.86,5.12,2.89,6.98,5.68,1.03,1.55,3.76,2.36,5.78,1.55,2.9-1.16,5.55-2.95,8.63-4.64-1.48-1.16-2.41-1.89-3.62-2.84,3.6-.29,5.77,2.75,9,2.43Zm25.22-77.58c-.26,3.54-2.54,6.25-1.32,9.58,3.99-.55,3.21-5.01,5.85-6.5.31,1.75-1.59,3.32-.52,5.13,4.12,1.51,6.14-.49,7.19-4.17.82-2.87,2.24-3.92,4.53-1.27,1.32,1.54,2.72,1.72,4.66.26-.55,2.24-2.77,4.16.73,5.46,4.81-6.32,7.25-13.41,6.87-21.44-.09-1.84-1.03-2.95-2.98-2.89-11.7.33-22.32,3.16-29.68,13.19-.93,1.26-2.24,2.59-1.58,4.59,2.34.47,4.36.14,6.25-1.94Zm-.43-48.51c.24.02.49.05.73.07-.22,1.65-.49,3.3-.65,4.96-.15,1.52.01,2.99,1.91,3.29,1.88.3,2.03-1.22,2.36-2.47,1.27-4.76,3.14-9.43,7.02-12.45,6.5-5.05,5.51-11.88,5.38-18.6-.04-2.03-1.19-2.57-3.23-1.81-12.14,4.54-19.99,12.99-23.42,25.49-.52,1.87-.73,3.85-.92,5.79-.12,1.21.13,2.52,1.69,2.59,1.49.07,1.42-1.22,1.54-2.25.19-1.53.15-3.11,1.31-4.65.11,1.79.1,3.35.32,4.87.17,1.25.87,2.15,2.31,2.24,1.4.09,1.71-.85,2.01-1.92.5-1.74,1.09-3.45,1.64-5.18ZM38.2,215.83c5.31-.33,10.03.26,14.81,1.15,7.8,1.45,13.74-3,14.98-10.6-1.7-.91-3.59.21-5.38-.5,1.96-1.32,5.3-.68,5.67-4.01.37-3.34.58-6.71.85-10.02-13.69-3.29-24.06,7.71-30.93,23.98Zm67.25-125.74c.23-.57.44-.83.4-1.04-.13-.63-.28-1.28-.56-1.86-4.87-9.8-12.04-17.09-22.63-20.58-6.35-2.1-7.04-1.47-5.92,5.28.11.65.13,1.31.26,1.95,2.24,11.42,8.65,19.44,19.5,23.76,1.44.57,3.16,1.56,4.67-.39-1.12-2.43-4.09-2.79-5.4-4.98,1.37-.26,2.22.77,3.31,1.1,1.3.39,2.63,1.82,3.92.33,1.19-1.37-.04-2.72-.55-4-.49-1.2-1.15-2.34-2.16-4.37,2.5,1.74,2.97,3.99,5.17,4.8ZM31.44,167.25c2.22-.45,4.37.06,6.52.67.93.26,1.87.31,2.35-.77.56-1.25-.12-2-1.18-2.49-.83-.39-1.68-.74-2.54-1.04-8.88-3.08-24.18,1.85-31.46,10.33,5.45,3.42,10.7,7.09,16.31,10.12,4.87,2.63,10.17,1.98,15.31.26,1.9-.64,2.99-1.66,1.72-3.72-1.55-.82-3.17.67-5.03-.09,1.89-1.48,4.67-1.34,5.2-4.15-2.42-.95-4.95.57-7.54-.92,2.44-.54,4.33-.97,6.23-1.38,1.13-.25,1.96-.86,2.1-2.04.15-1.23-.76-1.84-1.7-2.39-1.95-1.14-4.08-1.76-6.3-2.38Zm246.47,35.62c-2.03-.08-2.96-2.32-5.17-1.5.97,3.23,2.6,6.38,1.97,9.81-.79,4.31,1.58,6.34,5.12,7.53,2.1.7,4.28,1.34,6.47,1.56,4.03.39,8.12-.3,12.16.43,2.31.41,2.47-1.48,2.77-2.98,1.42-6.99-3.07-15.87-9.71-18.47-5.46-2.14-11.14-4.14-16.62.27.29,1.53,2.04,1.85,3,3.37ZM54.59,69.63c-1.06-6.44-2.24-12.45-9.89-14.56-3.93-1.08-7.82-2.36-11.87-2.37-5.21,0-10.38.63-15.15,4.49,4.47,3.04,8.13,6.54,10.44,10.89,4.64,8.71,12.97,6.68,20.9,8.41-2.41-4.76-5.14-7.41-11.04-6.05,1.72-1.34,2.89-1.24,3.16-2.56-.93-1.81-3.22-2.33-4.55-3.95,1.23-.82,2.12,1.11,3.26.28,1.04-1.07-.71-2.22.04-3.99,2.41,4.97,4.6,9.42,9.51,11.26,1.96-1.11.68-2.92,1.2-4.32,1.36.79,1.78,2.81,4,2.47Zm192.04,155.03c-5.16-4.97-11.16-6.68-17.17-8.45-2.29-.67-3.6.04-4.86,1.99-4.9,7.54-12.09,11.31-20.91,12.26-1.01.11-2.12-.17-3.12.78-.23,2.08.38,3.12,2.85,2.4,2.4-.71,4.76-1.72,7.87-1.63q-10.09,4.88-9.64,7.49c.62-.14,1.26-.21,1.84-.43,8.8-3.47,17.74-5.57,27.19-2.94,1.03.29,2.14.41,2.95-.47,3.74-4.04,8.28-7.17,12.99-10.99Zm42.08-43.49c.76.12,1.15.27,1.51.22,7.82-1.13,15.22-.79,21.02,5.64.82.91,1.87,1.04,2.77.14,4.3-4.24,7.73-9.06,10.25-14.52-15.96-9.5-28.94-8.89-36.41,1.46.75,1.14,2.03-1.06,2.67.31-1.04,1.52-3.28,1.82-3.67,4.02,2.18.62,3.88-1.49,6.2-.98-1.2,1.51-3.6,1.33-4.35,3.71Zm1.31,10.9c-4.04-.69-7.41-.93-10.8.84.48.44.56.59.67.61,1.15.21,2.3.45,3.45.59,9.31,1.09,16.99,4.41,19.87,14.39.55,1.9,1.87,1.78,3.44,1.43,3.65-.81,6.82-2.6,9.9-4.62,1.76-1.15,2.09-2.38.92-4.25-2.64-4.23-5.5-8.28-8.61-12.16-5.26-6.57-18.55-6.42-23.31-2.24h5.94c-2.85,1.15-5.53.71-7.34,2.77,1.5,1.98,4.07.37,5.87,2.64Zm-3.37-78.71c-3.72,1.67-7.18,3.15-10.57,4.76-1.21.57-1.21,1.88-1.38,3.07-1.16,8.14-4.49,15.26-10.17,21.26-.68.71-1.77,1.23-1.55,2.79,3.71,1.61,5.14-2.5,7.88-3.34.05,1.72-2.14,2.31-1.91,4.09,1.26,1.04,2.42-.84,3.63-.17.03,1.12-2.07.89-1.48,2.37,14.18.7,20.58-17.13,15.55-34.82Zm-26.71,115.75c3.56-2.79,6.86-5.36,9.14-8.92,4.1-6.4,3.71-13.93-.83-18.97-1.28-1.42-2.64-2.9-5.05-1.53.51,1.56.96,2.93,1.58,4.8-2.37-1.65-2.8-4.49-5.08-5.03-3.11-.73-2.36,3.09-4.34,4.23.06-1.11.09-2.01.16-2.9.07-.84-.07-1.56-.95-1.93-.89-.37-1.61.05-2.04.72-2.46,3.84-5.21,12.01-1.92,16.71,2.91,4.17,5.99,8.23,9.35,12.81Zm-225.06-35.64c-.06-.21-.13-.42-.19-.64.67-.37,1.36-.73,2.02-1.13,1.39-.83,3.81-1.19,3.15-3.33-.74-2.38-2.85-.92-4.36-.6-4.16.87-8.4,1.26-12.43-.03-7.79-2.49-12.65,2.33-18.03,5.94.25.85.27,1.14.41,1.33.22.31.5.6.81.84,8.49,6.69,17.97,9.31,28.67,6.98,2.7-.59,5.31-1.39,7.74-2.71.9-.49,2.05-1.04,1.32-2.36-.57-1.02-1.56-.6-2.45-.31-1.3.43-2.38,1.6-4.31,1.22,1.27-.92,2.31-1.64,3.3-2.42.97-.76,1.8-1.68,1.15-3-.68-1.38-1.88-1.06-3.07-.72-1.23.35-2.49.61-3.74.92ZM171.16,61.65c4.74-4.25,10.2-7.2,16.18-8.41,4.88-.99,7.55-3.84,9.57-7.78,1.72-3.37,3.27-6.84,4.66-10.36,1.47-3.73.8-4.52-3.2-3.95-8.13,1.16-15.03,5.04-21.55,9.79-1.75,1.27-2.52,2.65-2.4,4.91.21,3.84-.89,7.48-2.48,10.99-.6,1.32-1.93,2.57-.78,4.82Zm135.65-17.65c-7.64-1.74-13.89.54-19.96,3.82-1.16.63-1.33,1.89-1.82,2.93-2.59,5.46-4.29,11.37-8.33,16.08-.56.65-1.24,1.43-.5,2.52,1.92.87,3.38-.73,5.07-1.13.88-.21,1.83-.86,2.58-.66,3.05.81,8.58.41,10.61-1.37,6.6-5.78,10.56-13.07,12.34-22.19Zm-224.19,123.48c-1.52,0-2.42-.15-3.26.03-3.73.78-5.55-1.1-5.85-4.48-.3-3.34-1.44-5.63-5.36-5.63,1.39-1.72,3.71-.26,4.87-2.58-2.6-.98-5.39-1.51-7.56-2.96-6.4-4.29-11.39-.44-16.62,2.38-1.63.88-1.75,2.07-.62,3.54,6.58,8.53,14.8,14.76,25.11,18.11,2.15.7,3.56.21,3.79-2.45-2.16-1.53-5.16-.91-7.33-2.86,4.33-.37,9.34,2.81,12.83-3.09Zm104.25,222.73c-1.82,2.41-1.74,4.97-1.14,7.51,6.3,26.7,11.35,53.55,10.58,81.17-.07,2.42.47,4.1,3.41,4.06,3.15-.05,2.72-2.26,2.63-4.17-.76-16.63-1.64-33.29-4.46-49.69-2.28-13.25-8.16-25.62-11.02-38.88Zm86.26-290.28c14.56.75,29.11-21.39,29.09-31.7-6.35,2.16-13.33,1.34-19.16,5.19-1.3.86-3.12,1.53-3.16,3.26-.16,5.69-.79,11.3-2.77,16.67,2.07.57,3-1.45,4.82-1.11-2.3,3.29-6.28,4.17-8.82,7.69Zm-219.57-26.45c.02,7.43,1.49,13.25,4.41,18.77,1.37,2.6,2.78,3.64,5.89,2.38,4.85-1.97,9.96-1.81,15.07-.67,1.85.41,3.61,1.57,5.67,1.02.06-1.65-1.27-2.28-2.08-3.24-3.16-3.73-6.05-7.68-7.22-12.47-.87-3.56-2.88-4.79-6.2-4.08-5.05,1.09-10.02,1.78-15.56-1.71Zm45.97.05c-2.05-8.48-4.23-15.8-3.79-23.51.11-1.83-1.53-2.64-2.97-3.29-4.46-2.03-9.21-2.83-14.07-3.13-2.64-.16-3.47,1.19-3.39,3.57.17,4.75,1.36,9.29,2.72,13.81.34,1.12,1.05,1.76,2.18,2,7.05,1.51,13.16,4.88,19.32,10.56Zm187.1,28.96c2.37,2.26,5.03,2.27,7.9,1.34,3.26-1.06,6.29-2.58,9.11-4.51,4.64-3.18,9.32-6.3,13.85-9.62,2.61-1.92,6.07-2.05,8.84-4.23-.77-.61-1.22-1.09-1.77-1.39-8.32-4.45-23.21-1.29-29.02,6.16-2.18,2.8-4.6,5.34-7.52,7.4-.95.67-2.34,1.07-2.47,2.62,2.09.37,3.83-.62,6.05-.86-1.57,1.77-3.93,1.26-4.96,3.1Zm-133.84,106.58c-.57-2.07-2.28-3.02-3.42-4.39-5.29-6.32-7.79-13.4-5.39-21.52.82-2.76.72-5.12-.6-7.51-1.39-2.52-2.87-4.99-4.32-7.48-1.29-2.21-2.65-2.25-4.16-.17-2.63,3.61-5.16,7.27-6.7,11.51-1.86,5.15-1.5,6.48,3.26,9.16,7.65,4.31,11.81,10.87,13.2,19.41.24,1.47-.44,3.16.86,4.51,3.3-.42,3.02-2.45,1.88-4.77,2.12-.05,2.93,3.04,5.39,1.24ZM192.87,25.26c1.97-1.96,2.61-4.42,3.87-7.15,0,2.78,0,5.09,0,7.4,0,1.25.27,2.87,1.63,2.61,2.6-.51,5.23.7,7.77-.08-1.21-13.84-13.42-26.74-23.16-24.26,2.37,8.06,2.12,16.49,3.33,24.74.18,1.25.57,2.6,2.13,2.07,2.25-.76,4.83-.82,6.92-2.74-.93-.98-1.71-1.79-2.48-2.6ZM43.17,159.36c-1.39-4.1-4.31-5.59-5.93-8.1-5.18-8.01-21.22-10.05-29.38-4.33,1.69,5,5.39,8.39,9.55,11.36,1.35.96,2.66,2.45,4.49,2.1,6.75-1.3,13.5-2.32,21.27-1.04Zm183.42,25.13c1.48-.75,2.95-1.5,4.4-2.24-.31-4.46-4.5-3.22-7.1-4.9.96-.28,1.43-.45,1.92-.56,1.22-.27,2.86-.08,2.74-2.02-.09-1.53-.73-2.83-2.41-3.18-1.27-.27-2.61-.69-3.85-.53-8.26,1.1-13.39,6.65-17.6,13.11-1.55,2.38-.14,4.35,2.4,3.94,8.01-1.29,15.85-.5,23.65,1.47,1.68.42,3.55,1.14,5.08-.52q-2.54-5.16-9.24-4.58Zm-33.46,75.42c.49.33.77.61,1.12.74.86.31,1.74.55,2.62.82,9.33,2.87,15.96,8.77,19.65,17.83,2.23,5.46,4.05,6.63,9.88,6.8,3.62.11,4.38-1.48,3.51-4.56-1.59-5.6-4.23-10.69-7.61-15.41-.93-1.3-2.15-1.78-3.69-1.86-6.98-.36-13.36-2.74-19.12-6.49-3.21-2.09-4.94-1.53-6.36,2.13Zm112.33-119.58c-9.62-.13-21.28,8.22-23.93,17.02,1.93.15,2.22-2.38,4.01-2.47-.57,2.33-3.27,3.85-2.55,6.48,1.77,1.26,3.22-.6,4.75.03-.24,1.74-2.96,1.3-2.89,3.29,9.32,2.2,21.46-12.01,20.6-24.35ZM73,71.81c.97-3.06-.32-5.84.56-8.53,2.3-7-1.08-10.24-5.62-10.52-4.26-.27-8.55-.06-13.17-.06-.33,6.96,1.78,13.32,4.96,19.38.77,1.47,2.36,1.65,3.82,1.17,3.01-1.01,6.11-1.32,9.45-1.44Zm168.36,124.61c1.82-2.88.28-4.06-2.25-4.2-2.62-.14-4.89.66-5.82,3.61-1.5,4.74-3.13,9.45-4.72,14.17-.68,2.04-.17,3.28,2.16,3.53,1.03.11,2.04.49,3.04.78,6.08,1.76,11.39-1.36,12.69-7.64.36-1.71,2.12-3.77-.69-4.88.81-1.82,2.67-2.7,2.39-4.74-2.05-2-4.44-.67-6.81-.62Zm-5.79-102.66c1.95.3,2.63-.7,3.1-2.04,1.24-3.51,3.25-6.59,5.91-9.11,4.96-4.68,5.75-10.71,5.46-16.9-.11-2.31.87-6.1-2.33-6.78-2.79-.59-4.65,2.43-6.5,4.43-2.59,2.8-2.97,6.63-4.41,9.95-1.47,3.41-3.79,6.37-6.09,10.78,3.03-1.4,3.86.66,5.34,1.17,1.63-1.02,1.88-2.87,3.13-4.27.13,4.72-4.89,7.92-3.63,12.77Zm7.42-86.74c-12.92,5.47-17.89,19.47-10.7,28.46,1.41.05,1.02-1.75,1.94-2.21.62,1.83-.46,3.75,1.26,5.82,1.94-4.63,3.28-9.32,6.41-12.74,5.74-6.28,2.84-12.53,1.09-19.32ZM28.83,137.47c2.24,2.35,3.78,3.93,5.28,5.55,1.6,1.72,3.01,3.63,4.75,5.2,5.14,4.63,9.38,4.42,14.48-.54-.9-2.03-3.62-2.06-4.82-4.1,1.81,0,3.03,1.62,4.94.68-1.61-2.67.19-4.92,1.15-7.6-8.68-3.65-16.84-2.04-25.77.82Zm19.37-10.26c3.15,1.74,5.65,3.13,8.15,4.5,1.03.56,1.98.62,2.78-.42.74-.96.72-1.91.03-2.89-1.3-1.83-2.85-3.39-4.48-4.93-6.68-6.31-16.48-6.39-23.47-12.58-.97,9.96,11.75,22.25,20.86,20.74-.63-1.73-2.5-2.29-3.88-4.42Zm178.5-2.7c-1.25-3.17.94-7.1-1.55-10.04-2.96-3.51-6.71-6.2-11.02-7.92-2.24-.89-8.17,3.19-8.19,5.5-.03,2.98,4.96,9.97,7.97,10.96,3.36,1.1,6.58,2.47,9.62,4.29.28.17.71.07.97.1,1.03-1.09-.78-1.95-.09-2.9.79-.37,1.34,1.03,2.29.02Zm97.49,23.47c-5.02,2.9-9.22,1.34-13.47.14-1.15-.33-2.64-.09-3.08,1.12-1.86,5.05-4.88,9.36-8.84,13.35.92.29,1.31.55,1.63.49,5.37-.99,10.64-.96,15.69,1.49,1.56.75,2.49-.21,3.22-1.36,2.66-4.23,4.43-8.77,4.86-15.23Zm-35.64-6.37c5.33-1.17,9.95-3.71,15.09-4.59.48-.08.97-.87,1.21-1.43,1.44-3.39,2.48-6.89,2.87-10.57.2-1.87-.42-3.06-2.54-3.04-3.82.04-7.59.33-11.19,1.7-1.41.54-2.52,1.38-2.64,3.08-.35,4.95-1.19,9.81-2.79,14.84ZM33.66,209.57c1.4-1.45,3.41-1.7,3.98-3.8-4.28.01-8.35,1.27-12.51.9-6.56-.59-11.94,2.48-15.04,8.58,12.07,7.39,25.25,3.49,26.69-5.65-1-.95-1.92.52-3.12-.03Zm32.18-25.52c0-.13-.02-.26-.03-.38,1.88-.36,3.76-.66,5.62-1.1,1.07-.25,1.91-.91,2.03-2.13.09-.93-.55-1.34-1.28-1.75-7.58-4.31-19.29-1.12-24.2,6.76,2.31,2.96,5.67,3.56,9.08,3.55,3.92-.02,7.84-.42,11.75-.76,2.07-.18,2.42-1.56,2.03-3.54-1.71-.22-3.36-.43-5-.65Zm254.35-118.28c-5.35-4.22-10.75-4.85-16.45-4.04-1.41.2-2.56,1.05-2.23,2.92,5.17-1.27,5.73-.72,4.56,4.32-.29,1.27-.71,2.51-1.17,3.73-1.02,2.75-2.11,5.47-3.28,8.5,10.79-.02,11.61-10.65,18.56-15.43Zm-100.38-48.68c-7.61,12.65-10.34,22.37-8.33,29.75,4.33-2.22,3.15-6.87,4.28-10.78,1.08,1.41.07,3.17,1.75,3.76,7.16-6.54,8.2-16.98,2.3-22.73ZM28.71,228.36c9.73-.56,19.45-.52,27.56-7.86-4.35-2.15-7.37.99-10.94,1.87.54-1.43,2.29-1.57,2.02-3.09-8.78-2.26-14.14.42-18.63,9.07Zm-3.08-87.82c-2.34-4.55-2.32-4.67,3.04-6.22,3.43-.99,6.91-1.83,10.84-2.86-6.18-7.3-14.36-3.42-21.04-6.06-.86,6.8,3.05,14.56,7.16,15.15Zm169.71,29.02c-4.52-6.07-8.84-11.3-15.15-14.59.65,3.18,2.3,5.76,4,8.32,1.3,1.95,1.71,3.7-1.31,4.36-1.73.38-1.93,1.57-1.62,3,.43,2.01.93,4.01,1.45,6.25,4.25-2.47,8.18-4.75,12.62-7.33Zm37.32-81.21c-2.08-.63-3.5-.09-3.68.65-1.1,4.53-5.08,5.91-8.33,8.11-1.08.73-1.66,1.73-.79,2.99,2.21,3.21,4.78,6.06,8.78,9.06,1.71-7.43,3.18-14.03,4.02-20.82Zm-57.65,97.97c4.3-4.38,5.43-11.55,3.04-16.07-.47-.89-1.02-1.59-2.06-1.48-3.05.33-6.19.03-9.87,1.23,3.72,5.16,6.66,10.3,8.89,16.32Zm-91.49,27.37c7.28-2.5,14.78-2.63,22.66-2.7-1.02-3.45-1.86-6.25-2.94-9.9-6.83,4.56-13.91,7.41-19.72,12.59Zm63.7-38.1c1.49-3.21,2.55-5.54,3.65-7.86.56-1.18.07-1.99-.81-2.72-2.56-2.14-5.11-4.29-7.83-6.58-1.4,1.97-3.16,3.74-1.91,6.06,1.9,3.51,4.2,6.81,6.9,11.1Zm101.6-64.38c2.18-3.29,4-6.05,6.06-9.17-3.4-.51-5.83.91-8.41,1.55-2.94.74-3.8-.24-3.2-3.24.27-1.34,1.29-2.63.35-4.27-2.99-.33-5.7.21-8.31,2.5,4.87,3.89,9.38,7.64,13.52,12.63Zm-70.9,40.74c5.34-2.96,11.17-4.51,16.93-6.48-6.6-1.37-12.93.78-19.58.19.39,2.83,1.52,4.4,2.65,6.29Zm26.21-108.61c.29,2.63-2.51,4.02-2.28,6.56,1.79.83,3.54.8,3.95-1.11,1.12-5.27,2.11-10.6.05-16.21-1.62,4.04-3.24,8.07-4.88,12.18,1.97.59,2.09-1.06,3.16-1.41Zm40.98,187.04c1.31,1.06,2.55.33,3.74,0,4.85-1.35,5.66-3.86,2.64-7.84-1.94-2.56-3.8-5.19-5.72-7.82-1.47.44-2.59,1.18-3.1,2.86,2.14,1.66,4.36,3.22,6.38,5,1.64,1.45,1.85,2.98-.24,4.49-1.31.95-2.96,1.64-3.71,3.31Zm-51.19-113.42c1.66,3.15,8.38,4.76,12.18,3.04-1.11-2.15-2.21-4.3-3.39-6.59-3.12,1.26-5.94,2.41-8.79,3.56Zm90.92-10.77c-3.82-1.34-6.8-.97-9.74.31-1.39.61-1.41,1.75-1.04,2.96.38,1.26,1.29,1.55,2.46,1.13,2.77-.99,5.67-1.77,8.33-4.4Zm-121.64,199.03c-.45-1.45-.85-2.74-2.54-3.34-1.96,1.81-4.01,3.42-5.66,6.24,3.22-.64,5.79-1.22,8.2-2.9Zm21.24,13.66c-3.01,3.43-2.33,7.26-1.52,11.11,1.31-3.6,2.81-7.16,1.52-11.11Zm35.25-233.63c.64-1.8.81-3.54-.32-5.39-1.74.97-3.34,1.75-3.97,3.95,1.31.7,2.38,1.81,4.28,1.44Zm-12.19-8.83c-1.81.76-2.93,2.02-3.56,3.82,1.39,1.46,2.8,1.42,4.37.74.4-1.64.26-3.11-.82-4.57Z"/>
    </g>
  </g>
</svg>