<?xml version="1.0" encoding="UTF-8"?>
<svg id="Layer_2" data-name="Layer 2" xmlns="http://www.w3.org/2000/svg" viewBox="0 0 398.89 477.9">
  <defs>
    <style>
      .cls-1 {
        stroke-width: 0px;
      }
    </style>
  </defs>
  <g id="katman_1" data-name="katman 1">
    <g id="bLmbMp">
      <g>
        <path class="cls-1" d="m226.14,68.4c2.62.79,3.49,3.48,5.44,5.02,2.61,2.06,5.32,3.71,9.09,4.16-.5-3.27-1.94-5.76-3.2-8.27-1.74-3.49-3.32-7.01-3.89-10.91-.49-3.37-2.02-6.25-4.19-8.83-2.06-2.43-2.41-4.86.19-7.12,2.15-1.87,2.52-4.24,2.29-6.87-.07-.77-.05-1.56.01-2.33.19-2.53.2-5.38,2.86-6.56,2.63-1.16,4.11,1.48,6.52,3.1,2.5-7.08,7.69-9.84,14.98-9.2,3,.26,4.14-2.45,5.67-4.42,2-2.58,2.94-6.85,6.02-7.49,2.87-.61,4.96,3.21,7.4,5.02,4.42,3.27,9.13,4.99,14.64,4.57,3.51-.27,6.98.07,10.38,1.08,4.92,1.45,8.89,4.18,10.74,9.03,1.03,2.69,2.58,3.95,5.25,4.65,2.98.78,5.29,2.79,5.74,5.97.72,4.98,3.82,6.82,8.37,7.15.93.07,1.93,0,2.65.87-.14,1.97-1.91,2.84-2.87,4.23-1.54,2.2-2.45,4.52-1.22,7.08,2.14,4.46.83,8.29-1.83,11.95-2.03,2.79-3.4,5.61-1.63,9.14,1.19,2.37-.18,3.64-2.38,4.25-3.61,1-6.82,2.75-9.77,5-.56,1.58.98,1.91,1.58,2.75,2.73,3.77,2.53,5.1-1.35,8-.62.46-1.31.85-1.89,1.36-.89.77-1.82,1.66-.91,2.93.78,1.08,1.7.3,2.58-.02,3.47-1.28,6.88-.48,10.32.22,5.28,1.07,10.45,3.11,16.04,1.48,2.49-.73,4.15,1.08,5.02,3.09,2.16,5,6.22,7.74,10.83,10.07,2.6,1.31,5.05,3.09,6.61,5.6,2.59,4.16,5.28,8.09,9.86,10.39,1.65.83,2.68,2.74,1.92,4.46-1.59,3.62.05,5.07,3.08,6.58,4.65,2.31,4.8,3.88.75,7.03-3.35,2.6-7.03,4.79-10.79,7.31,1.23,2.55,3.58,3.66,5.58,4.91,3.27,2.03,3.12,3.9.56,6.33-1.4,1.33-2.66,2.84-3.81,4.41-2.48,3.4-5.23,6.48-5.82,11.13-.4,3.09-4.01,6-3.89,8.89.3,6.89-3.82,8.65-8.99,10.34-2.34.77-4.39,2.45-6.56,3.76-3.71,2.23-7.55,4.14-12.04,3.64-2.46-.28-3.55.84-4.11,3.02-.86,3.31-2.14,6.41-1.18,10.09,1.75,6.69-1.1,12.61-3.97,18.44-1.19,2.41-2.94,4.57-3.51,7.34,3.01,1.16,5.35.76,6.77-2.38.9-1.98,2.42-3.49,3.94-5.01,4.17-4.16,9.15-7.08,9.15-14.72,0-5.48,4.3-10.67,11-11.83.54-.09,1.16-.31,1.52-.68,6.92-7.02,16.28-8.26,25.15-10.65,2.56-.69,4.84-1.35,7.75.11,2.06,1.04,5.27-.08,7.94-.41,2.07-.26,4.08-1.14,6.25-.55.42,2.31-1.45,3.14-2.51,4.34-4.5,5.08-8.89,10.27-13.4,15.3-4.94,5.52-10.08,11-15.62,15.96-2.85,2.55-6.96,3.02-10.96,3.39,3.97,2.81,4.04,2.88,1.06,5.77-2.36,2.3-4.84,4.49-7.42,6.54-2.7,2.14-1.79,4.06.42,5.44,5.04,3.15,10.42,6.32,13.41,11.32,3.54,5.91,9.7,10.29,11.25,17.48-2.49,1.42-3.78-.28-5.18-.99-6-3.05-12.24-3.54-18.69-2.01-9.45,2.24-18.76,3.25-28.46.52-4.42-1.24-9.54-.54-14.26-.02-7.72.84-7.7,1.08-14.95-1.33-.39,7.3-5.67,12.85-6.77,20.9,5.02,0,9.95-.02,14.88.01,1.65.01,2.21-1.19,3.06-2.27,6.56-8.33,17.31-11.48,26.51-6.18,8.25,4.75,16.32,10.07,21.81,18.66,2.88,4.52,4.69,9.56,7.83,13.88,1.05,1.45,2.2,3.21,1.54,5.24-1.77,1.15-2.69-.26-3.6-1.06-5.71-5.04-11.29-5.22-18.63-2.39-11.01,4.25-21.98,3.92-31.23-5.58-3.48-3.57-6.1-7.61-5.92-12.85.08-2.34-.55-3.69-3.14-3.74-6.95-.14-13.9-.54-20.96.96,5.41,2.2,9.91,5.5,13.92,9.58,6.02,6.12,7.59,13.39,6.86,21.72-.77,8.74-5.07,16.03-8.54,23.71-.85,1.88-2.76,2.65-4.03,4.1-4.23,4.81-9.35,8.79-13.23,13.93-1.38,1.83-3.04,2.15-3.99-.12-2.2-5.23-7.39-7.36-11.45-9.96-9.46-6.05-14.79-13.8-16.28-24.94-.59-4.42-.7-8.83-1.08-13.23-.55-6.45,1.47-12.19,5.97-17.07-11.64,4.61-21.2,11.75-28.32,22.07-1.57,2.28-2.45,4.3-.11,6.71,1.43,1.47,1.71,3.66,1.08,5.51-1.45,4.25-.8,8.86-1.81,12.91-1.53,6.12,0,11.52,1.11,17.14,5.24,26.51,13.06,52.3,21.51,77.93,1.63,4.96,1.3,5.83-2.82,7.92-4.6,2.34-5.74,1.86-7.38-3.22-1.9-5.9-3.76-11.81-5.72-17.95-.79,3.55-6.83,8.91-9.88,9.09-2.6.15-2.56-1.85-2.92-3.5-1.57-7.17-3.12-14.35-5.47-21.48,0,9.78,0,19.57,0,29.35,0,3.11-.08,6.22-.02,9.33.06,3.16-.66,5.22-4.56,4.97-4.9-.31-5.88-.83-5.93-5-.09-6.59-.02-13.19-.26-19.92-1.01,2.62.26,6.83-4.76,6.45-3-.23-4.78-1.11-4.42-4.56.57-5.4.92-10.83,1.44-16.24.52-5.38,1.13-10.76,1.01-16.35-2.63,7.8-5.34,15.57-7.88,23.4-2.46,7.57-4.73,15.19-7.1,22.79-1.26,4.03-3.67,5.06-7.47,3.1-1.02-.53-1.83-1.44-2.79-2.08-2.02-1.33-5.43-.97-5.99-3.95-.43-2.26,1.1-4.44,1.81-6.65,2.06-6.43,4.11-12.87,5.81-19.49-1.87,1.3-2.58,3.35-3.47,5.25-1.13,2.43-2.56,3.86-5.43,2.48-3.16-1.51-3.99-3.29-2.44-6.42,6.3-12.71,13.34-25.01,20.53-37.23,2.86-4.85,5.79-9.67,8.68-14.5,2.24-3.74,2.71-7.44.69-11.57-1.79-3.66-2.57-7.48-1.55-11.83.77-3.24-1.18-6.76-.32-10.97-5.88,3.32-11.05,6.45-16.66,8.86-6.61,2.84-12.9,6.59-20.3,6.35-7.24-.23-14.57.82-21.73-1.15-.91-.25-1.89-.31-2.85-.33-5.92-.14-5.9-.12-5.13-6.33.2-1.64.92-3.19-.64-4.86-1.19-1.27-.45-3.37-.2-5.08.4-2.78.79-5.21-.28-8.3-1.18-3.41.49-7.67,1.86-11.26,1.65-4.31,4.07-8.41,5.74-12.62,1.69-4.25,5.55-7.1,6.73-10.69,2-6.09,5.78-8.85,11.09-10.66,5.22-1.79,10.67-1.91,16.13-1.8,1.15.02,2.34.23,3.42-.39-.76-5.67-2.6-7.15-7.47-5.68-2.85.85-5.74.89-8.64,1.11-3.29.25-6.6.4-9.85.95-11.71,1.99-12.25,1.85-19.55-6.86-1.09.78-2.19,1.58-3.3,2.35-4.38,3.06-8.7,5.74-14.22,7.06-8.19,1.95-15.98,5.51-20.85,13.48-5.3-10.57-5.05-28.98,7.22-43.28-4.75-.75-9.29-1.39-13.72-1.75-3.5-.28-6.51-2.76-10.11-1.78-2.93-6.03-9.39-.59-13.3-4.11-1.48-1.33-3.96,1.25-6.42.06.49-3.48,2.83-5.93,5.07-8.1,4.69-4.52,7.46-10.51,13.38-14.35,4.27-2.78,9.03-3.08,13.09-5.49q-1.85-7.39,3.27-9.36c-3.03-1.49-5.68-2.87-8.49-4.08-3.73-1.6-8.35-2.28-8.64-8.06-.1-1.91-2.54-1.93-4.27-1.01-3.31,1.75-6.39.52-9.53-.6-2.72-.97-4.42-2.5-3.38-5.61-2.13-.69-3.65.59-5.37.65-3.21.1-6.76.06-8.68-2.45-3.14-4.1-7.71-6.69-10.45-11.19-3.35-5.49-8.13-9.35-14.86-10.09v-2.33c7.85.18,13.45,4.99,16.84,10.93,2.86,4.99,9.59,5.65,10.9,11.62.09.39,1.39.49,2.1.78,2.55,1.05,4.98.35,7.36-.53,2.31-.85,3.63-.36,4.22,2.22,1.08,4.72,7.39,6.72,11.01,3.59,3.73-3.23,2.94-7.93-1.74-9.44-2.57-.83-5.31-1.09-7.95-1.71-8.26-1.94-15.05-6.03-19.44-13.64,6.65,6.3,13.59,11.96,23.5,12.2-.42-1.97-1.53-3.64-.2-5.3,1.97-2.47.86-4.28-1.16-5.94-3.65-2.99-6.52-6.72-11.23-8.71-2.33-.99-4.65-.52-6.84-1.67-7.68-4.04-15.22-3.04-22.44,1.45-1.63,1.01-2.94,2.55-4.93,2.97v-2.33c5.28-4.21,11.1-6.88,18.02-7.31,3.08-.19,5.64.75,8.44,1.48,7.43,1.92,14.2,4.88,19.12,11,3.45,4.29,8.49,4.48,13.32,5.64-3.42-5.22-7.65-9.75-9.74-15.67-.3-.84-1.82-1.35-2.87-1.81-6.56-2.85-9.53-8.24-8.89-14.92.73-7.59-1.34-13.8-6.44-19.13-2.23-2.33-1.46-3.57.99-4.74,1.22-.58,2.35-1.37,3.59-1.93,2.6-1.17,3.4-3.11,2.42-5.68-1.38-3.58-.4-5.75,3.19-7.34,4.45-1.97,7.55-5.53,8.83-10.27,1.65-6.12,6.16-10.76,8.21-16.65.71-2.04,2.41-1.71,3.9-1.41,8.65,1.76,16.55.08,23.78-4.96,2.05-1.43,4.74-1.92,6.67-.76,3.72,2.25,7.87,1,11.65,2.2.89.28,2.11.51,2.84.13,3.44-1.77,5.8-.26,8.08,2.16.61.65,1.54,1.15,2.72.68.39-3.49-1.29-5.13-4.53-6.2-4.08-1.35-4.56-3.15-2.96-7.11.86-2.13,3.91-4.06,2.85-6.04-2.16-4.05-3.35-8.77-7.03-11.93-2.65-2.28-5.28-4.56-7.22-7.54-1.35-2.08-1.71-4.02.63-5.5,2.39-1.51,3.11-5.1,6.58-5.21.06,1.52-1.09,2.43-1.87,3.47-3.89,5.2-4.03,5.83.85,10.16,3.56,3.16,6.3,6.68,8.21,11.05,1.85,4.21,5.17,7.14,9.53,8.83,1.43-1.94,1.11-4.29,2.03-6.12,1.46-2.89.05-4.32-2.14-5.61-1-.59-1.99-1.24-3.05-1.67-5.2-2.13-7.91-5.84-8.1-11.58-.1-2.86-.91-5.69-1.37-8.39-1.52-.82-2.83.39-4.15-.1,4.15-3.65,7.78-7.54,8.84-13.36.65-3.56,3.66-5.48,6.93-6.43,3.54-1.03,6.3-2.64,7.95-6.14,1.28-2.7,3.78-4.03,6.77-3.39,4.12.87,7.6-.34,11.02-2.44,3.55-2.17,7.34-2.42,11.1-.53,3.02,1.51,6.25,2.11,9.55,2.28,4.75.25,8.71,1.76,11.05,6.69,2.79-2.53,5.51-2.57,8.63-.97,1.82.93,4.14.84,6.21,1.31,5.22,1.18,7.72,3.46,7.62,8.69-.08,4.31,1.86,6.54,5.29,7.99,2.72,1.15,4.53,2.54,4.41,5.93-.1,2.68,1.92,4.47,3.83,6.22,6.64,6.06,6.95,10.04,1.04,16.62-1.72,1.91-1.51,3.2-.29,5.03.96,1.44,2.78,2.16,3.2,4-3.33-.34-4.25-3.67-6.56-5.36-2.06,1.08-4.33,2.1-5.51,4.07-1.15,1.93,1.24,3.39,1.66,5.2.29,1.26-.35,2.2-.71,3.29-.5,1.49-.69,3.03,1.28,4.15,4.66-5.23,7.51.11,10.83,2.41,3.69-7.41,3.47-9.72-1.12-13.87,2.61.68,6.03-.27,7.11,3.52-2.45,2.84-1.81,6.64-3.07,9.88-1.47,3.77-.54,5.73,3.33,7.09,3.24,1.13,6.41,2.64,10.09,2.36,2.5-.19,5.16.36,6.95,2.38,6.18,7.01,14.75,6.66,23.67,8.42-2.43-3.9-6.31-4.94-7.79-8.22-3.27-7.26-9.26-9.49-16.78-10.32-7.27-.8-13.71-3.95-16.48-11.67Zm-10.41,43.24c1.17,1.29,2.48,2.43,4.09,3.12,2.5,1.07,5.1,1.84,7.85,1.28,1.7-.34,3.66-.91,3.63-3.01-.03-1.9-1.61-2.98-3.42-3.41-2.49-.58-4.96-.33-7.41.35-1.64.46-2.91,1.95-4.79,1.73,6.89-8.05,15.57-5.87,19.68,5.05,1.43-1.23,2.24-2.55,1.64-4.5-1.86-5.97-11.3-13.01-19.33-7.28-2.29,1.64-4.41,3.54-1.93,6.66Zm24.48,191.27c.3-2.71.21-5.23-2.76-6.51-3.67,6.42-6.74,12.74-3.41,20.51,2.88-4.62,2.12-10.49,6.26-14.12-.29,5.16-3.57,9.69-3.47,15.04,7.81-.71,9.52-6.69,11.7-12.34q-6.06-2.85-8.33-2.58ZM186.57,24.23c-1.46-3.36-3.87-5.77-7.37-6.87-1.62-.51-3.84-2.24-4.79.77-.67,2.14-1.38,4.6,1.67,5.9,3.82,1.62,5.76,4.81,6.76,9.87.59-4.43.24-7.92,3.78-9.74-.75,4.11-3.2,7.75-2.71,12.25.93,8.55,3.06,17.15-1.34,26.15,7.78-2.88,9.76-5.35,9.83-11.6.09-7.71-2.06-15.31-1.18-23.09.37-3.28-2.24-3.51-4.66-3.63Zm141.09,104.89c3.78,2.81,8.05,5.07,10.52,9.35-1.64,1-.73,2.23-.41,3.52,1.7,6.89-1.12,12.52-7.68,15.45-1.25.56-2.54,1.02-4.13,1.64,5.52,3.44,7.39,3.3,11.11-.4,5.71-5.69,6.05-12.39,1.02-20.27,4.79,2.44,6.66,6.44,5.62,11.78-.97,5-3.81,8.98-7.47,12.76,9.04,1.72,11.39.36,13.93-7.41.47-1.45,1.24-2.83,2-4.16,2.35-4.08,2.3-8.46-1.37-10.78-5.22-3.29-8.96-7.84-13.02-12.24-3.61-3.92-7.41-4.31-11.62-2.1.33,1.08,1.83,1.53,1.57,2.93-3.2-.69-6.03-2.72-9.36-2.82-9.81-.28-14.1,3.47-14.14,11.94-.04,9.46,6.44,17.23,16.67,19.23-3.61-4.3-7.02-8.45-7.78-14.19-.87-6.57,2.42-12.92,10.64-10.69,3.74,1.01,3.82-1.04,3.9-3.55Zm-253.01-17.5c-.22,1.87-.79,3.78-.59,5.6.33,2.96,2.82,3.42,5.18,3.18,2.5-.25,2.33-2.14,1.61-3.89-.9-2.2.35-4.53-.48-6.76-2.33-.37-3.48,2.57-5.79,1.94,3.53-4.52,8.69-6.82,13.58-9.16,3.91-1.87,8.09.86,9.73,5.05.65,1.66.23,3.71,1.74,5.48,1.09-2.66.73-4.99.41-7.22-.89-6.15-4.06-8.62-10.35-8.38-4.08.15-8.14.43-12.04,1.79-5.96,2.09-10.56,5.81-12.97,11.71-1.8,4.4-2.86,9.08.57,13.23,3.53,4.27,8.36,5.49,13.65,4.52,2.84-.52,5.57-1.64,8.36-2.43,10.99-3.14,10.1-9.78,8.95-17.63-.37-2.48-2.15-4.4-4.7-4.49-2.61-.09-5.52.14-7.37,3.98,2.77-.79,4.57-1.47,6.43-1.8,2.19-.38,3.72.39,4.09,2.9.71,4.89-2.77,11.51-7.56,14.14-5.16,2.83-12.9,2.57-16.54-.55-1.41-1.21-2.88-3.16-1.58-4.44,2.15-2.11,2.69-5.5,5.69-6.79Zm262.22,209.03c-3.8-.36-7.41-1.25-10.99-2.76-5.52-2.33-11.38-3.61-17.35-4.38-2.82-.36-3.95.53-3.37,3.52,2.02,10.36,13.14,18.26,25.03,16.96,7.32-.8,13.61-4.54,20.75-5.46,2,.5,2.72,3.38,5.63,2.87-.16-2.34-2.02-3.68-2.92-5.48-2.91-5.82-5.83-11.61-12.01-14.75-.51-.26-1.28-.58-1.38-1-.75-3.28-3.76-4.34-6.06-4.25-3.55.15-3.24-3.65-5.8-4.28-5.28-1.3-10.4-1.24-15.39,1.01-3.43,1.55-6.25,3.74-7.13,7.95,10.83,2.35,21.49,4.43,30.98,10.05Zm-95.54-220.71c2.42.09,3.47,2.04,3.89,3.78,2.23,9.26,6.16,18.45.16,27.95-3.24,5.13-4.08,11.22-5.11,18.5,4.84-4.85,9.3-8.04,11.47-13.3,1.79-4.33,4.24-8.26,7.36-11.8,3.94-4.47,4.02-9.45,1.5-14.63-1.67-3.43-4.36-5.95-7.57-7.87-3.56-2.13-6.62-4.74-8.78-8.32-1.64-2.71-4.07-4.06-7.18-4.33-2.05-.18-3.6-.18-4.15,2.64-.53,2.7.13,3.86,2.61,4.67,2.05.67,4.89-.14,5.89,2.78-.81.58-1.93-.51-2.67.49,4.21,11.03,2.42,16.25-9.18,26.04,4.57-.86,8-2.78,10.76-5.86,5.93-6.62,5.19-13.61,1-20.74Zm-147.48,95.47c-4.86,6.5-6.54,13.46-3.31,21.26.98,2.37.51,4.99.62,7.5.39,8.8,4.45,15.05,12.75,18.35,4.99,1.98,10.15,2.95,15.62,2.63-9.57-3.42-15.94-10.09-20.15-19.05-.4-.86-.91-1.77-1.62-2.36-6.98-5.81-5.27-13.13-3.43-20.34,1.14-4.47,4.44-7.08,8.7-8.67,3.27-1.22,7.09-.59,10.03-2.58,2.71-1.84,5.34-3.64,8.7-4.21-9.99-.07-19.2,2.38-27.72,7.37,1.27-4.24,5.22-4.79,8.56-6.01,2.56-.94,4.81-1.84,6.7-4.13,4.16-5.05,9.76-6.54,16.21-5.48,5.92.97,10.93,3.75,15.74,7.11,1.6,1.12,3,2.74,5.26,3.03-.35-7.14-2.58-10.18-8.64-11.61-5.26-1.24-10.64-1.85-15.91-3.19-3.58-.91-7.54-.6-10.68,1.58-6.55,4.55-13.75,7.77-20.8,11.37-8.67,4.42-11.11,10.25-9.42,19.66.66,3.66.53,7.34.88,11,.57,6.06,2.62,11.34,8.37,14.65-2.41-7.11-.93-14.64-3.01-21.74-.94-3.2-.53-6.58.79-9.68,1.18-2.75,1.91-6.04,5.76-6.45Zm199.26-46.23c-3.93-.71-4.57,2.02-4.88,4.84-1.07,9.94.69,19.71,2.01,29.5.36,2.63,2.11,3.51,4.36,3.89,9.27,1.59,18.47,1.65,27.58-1.17,3.59-1.11,5.71-3.12,5.39-7.12-.26-3.26-2.51-5.71-6.48-6.36-2.46-.4-5.02-.3-7.54-.28-4.8.04-8.23-2.17-10.18-6.41-1.94-4.2-3.93-8.41-5.13-12.92,1.86-.51,2.25-2.15,2.28-3.62.09-3.8.14-7.61.89-12.09-4.03,2.13-6.45,4.84-9.01,7.42-1.89,1.91-.39,3.02.69,4.32Zm19.39-78.3c-.37-2.19,1.4-3.52,2.18-5.23,1.45-3.19,2.02-6.35.82-11.11-1.84,4.72-5.12,6.91-6.78,10.09-4.95,9.46-13.32,12.37-23.1,13.01-1.42.09-3-.53-4.24.85,1.38,2.08,3.37,2.59,5.53,2.89,4.85.66,9.27-.61,13.38-3.02,4.14-2.42,8.18-5.01,12.26-7.53.27,1.63-.94,2.45-1.91,3.36-6.39,5.98-10.23,13.95-16.77,20.66,12.24-.93,18.88-11.12,29.54-14.04-2.34-4.93-.62-8.83,2.24-12.55,1.61-2.09,2.53-4.65,1.57-7.12-1.69-4.31-1.28-8.26,1.67-12.39-4.34-1.29-7.86-2.89-8.63-7.36-.83-4.87-3.84-6.74-8.64-6.71-4.57.03-8.32-1.81-10.44-6.13-1.47-2.99-4.15-3.99-7.13-4.27-3.1-.29-6.13.1-9.2.94-4.43,1.21-7.71,4.69-11.91,5.94-8.62,2.58-11.52,9.02-12.91,16.9-1.42,8.04-.48,16.27-1.98,24.3-.19,1.01-.35,2.41,1.6,3.06.23-6.02,1.26-11.8,3.54-17.3,2.08-5.02,3.91-10.01,3.82-15.67-.08-4.71,2.1-6.6,6.86-6.71,2.06-.04,3.71-.92,5.55-1.37-.33,4.62,3.32,2.64,4.72,2.25,5.89-1.64,10.17.87,14.21,4.54,1.72,1.56,3.12,3.45,5.13,4.71,5.62,3.5,5.84,8.44.29,12.15-5.58,3.73-11.76,3.76-17.85,1.48-7.7-2.89-12-10.71-10.03-18.59.71-2.86-.79-3.08-2.48-3.22-2.27-.18-3.4,1.24-3.89,3.45-1.15,5.13,5.06,19.38,12.8,21.01,6.49,1.36,13.04,2.23,19.65,1.54,5.5-.58,9.29-3.72,11.06-9.01,1.7-5.07.1-9.79-4.4-13.42-3.65-2.96-7.96-4.8-12.06-6.99-5.72-3.04-11.43-3.49-17.11.09,2.96-4.43,7.09-5.71,13.11-3.91,3.93,1.18,7.43,3.31,11.06,5.17,6.72,3.44,12.01,7.92,12.42,16.21.04.92.66,1.8,1.01,2.7,2.37,6.03.77,11.76-4.57,16.37Zm-177.91,272.83c-.61-4.5,6.43-5.55,4.06-10.61,3.65-.42,6.77-2.81,9.91-5.55,7.83-6.8,16.64-12.06,26.53-15.36,1.4-.47,3.06-.42,3.89-1.97-9.45-13.66-34-12.94-43.73-6.99-1.31.8-2.84,1.58-1.4,3.56.54.75.13,1.63-.54,2.01-4.92,2.77-6.5,8.03-8.84,12.5-2.54,4.83-5.57,9.38-6.73,15.13-.69,3.43,1.68,5.52,1.04,8.42-.88,3.95-3.37,7.93,0,11.98.38.45-.43,1.81-.52,2.76-.18,1.85-1.3,3.63-.5,5.96,7.21-1.36,14.12,3.01,21.38.73.17-.05.39-.02.58.02,9.57,1.9,17.83-1.7,25.87-6.2,1.67-.94,3.3-1.86,5.11-2.63,9.37-3.96,14.87-10.74,14.8-21.41-.04-5.72-1.06-11.18-3.05-16.51-.47-1.26-1.25-2.56-1.2-3.82.13-3.26.28-3.26-2.74-2.4-14.82,4.23-26.76,12.97-37.37,23.81-2.07,2.11-4.18,4.19-6.53,6.53Zm137.71,41.46c6.32-9.6,16.02-14.76,20.11-25.52,3.17-8.34,5.44-15.97,3.55-24.85-2.53-11.89-14.69-20.61-26.65-18.4-1.75.32-3.35.25-5.11.04-10.58-1.26-21.49,9.33-20.53,19.68.51,5.53.92,11.07,1.38,16.6.7,8.43,5.52,14.54,11.85,19.33,5.07,3.83,11.38,6.04,15.4,13.1Zm54.1-171.52c-6.51,1.13-12.46-.89-18.33-.03-6.16.9-12.4.89-17.7,6.29-4.59,4.68-6.13,10.13-7.03,15.59-.5,3.03-1.04,5.42-2.97,7.54-3.3,3.62-2.84,8.29-3.71,12.58-.27,1.32.65,2.17,1.72,2.75,3.43,1.88,6.04,4.77,8.9,7.56,2.18-3.43,2.7-7.57,6.74-10.83-1.79,5.3-5.34,8.89-4.56,14.04,8.99.11,16.61-2.9,21.85-9.47,4.12-5.16,6.74-11.56,9.78-17.53,1.81-3.56,3.33-7.25,2.19-11.53-1.01-3.79-.07-7.5,1.33-11.1.62-1.6,1.01-3.28,1.78-5.86Zm-59.66,73.43c-2.87-1.9-4.93-3.33-7.05-4.66-.95-.6-2.17-1.44-3.13-.37-2.61,2.92-6.15,4.59-9.06,7.07-.76.65-.04,2.43-2.16.82-1.12-.85-4.39-.3-5.59,1.63-.97,1.58.45,3.34,1.26,4.82.73,1.34,1.59,2.93,2.83,3.6,4.54,2.47,9.06,5.57,13.97,6.62,7.15,1.53,14.64,1.51,21.98,2.1,1.55.12,3.38.17,3.93-1.67,2.32-7.74,7.14-14.59,6.72-23.33-.62-12.87-7.26-21.06-18.35-26.27-2.35-1.1-5.87-2.59-7.39.03-1.18,2.05-4.3,5.58.03,8.2.58.35.87.54.1.96-4.21,2.29-3.36,7.05-4.88,10.59-2.5,5.8,5.23,4.77,6.52,8.31.05.14.05.3.26,1.54Zm103.81.73c-4.05-4.73-6.45-10.65-11.52-14.74-2.2-1.78-4.8-3.24-6.62-5.25-4.54-5.04-10.33-7.09-16.59-8.56-1.68-.39-4.1.07-4.23-2.9-.04-.95-1.19-.82-1.91-.81-6.08.04-13.02-2.36-16.23,5.82-.32.82-1.34,1.37-2.03,2.04-5.52,5.34-12.31,7.83-19.83,8.64-.47,2.86,2.5,4.95,1.77,7.22-.85,2.63-.9,4.45,1.5,5.96,1.99,1.25,4.4,2.94,6.42,2.22,4.68-1.67,9.49-.2,13.98-1.28,3.09-.74,5.72-.38,8.44.5,7.74,2.51,15.53,2.43,23.21.14,7.97-2.39,15.64-2.28,23.65,1.01ZM197.55,124.22c-2.12,16.05,20.64,44.96,36.32,45.84-.09-5.48,2.03-10.54,3.08-15.78,2.01-10.11,4.2-20.02,8.9-29.31,1.13-2.23,2.21-5.11-.17-7.61-5.86,8.32-7.93,9.66-18.19,12.14-1.68.41-3.33,1.06-4.89,1.81-4.36,2.1-8.6,1.85-12.85-.31-4.11-2.09-8.26-4.1-12.2-6.78Zm-84.75-5.64c-3.85,9.15-9.82,14.68-19.08,16.17-1.71.28-3.26,1.32-4.48,2.59-3.18,3.29-7.2,4.42-11.56,4.66-3.01.17-5.66,1.2-8.04,2.99-4.2,3.17-3.98,5.61.95,7.75,8.24,3.57,15.87,8.03,22.54,14.11,1.76,1.6,3.83,3.16,6.62,2.48-1.53-13.11,4.01-20.37,16.72-21.68,3.73-.38,4.59-2.2,4.41-5.3-.48-8.24-2.33-16.04-8.08-23.76Zm-41.07,105.7c1.88,5.61,4.99,10.54,4.62,16.43-.1,1.66,1.14,2.27,2.28,3.04,3.09,2.1,4.99,5.33,7.47,7.93,2.5,2.62,7.41,1.63,10.73,3.84,1.94,1.29,3.92,2.51,5.84,3.83,2.72,1.86,5.2,4.07,8.23,5.48,6.13,2.86,11.81,2.18,16.67-2.53,6.88-6.67,11.13-15.38,17.49-22.54-9.34,6.59-19.4,9.34-30.52,7.43-14.5-2.49-26.96-8.31-33.79-22.39-.88-1.8-1.99-2.07-3.65-1.99-1.76.09-3.46.38-5.38,1.47Zm29.6.77c4.81,9.93,11.4,15.98,21.39,18.52,7.54,1.92,13.03-1.54,18.83-5.32,6.3-4.11,6.01-11.36,8.89-17.08.2-.4-.11-1.16-.37-1.66-3.14-5.93-6.89-11.4-11.89-16.59-1.86,9.31-4.17,14.02-10.27,15.98-8.47,2.72-16.11,8.94-26.57,6.15Zm61.4,45.95c-.25,3.48,1.57,5.35,3.71,7.04,2.29,1.81,4.9,3.57,5.77,6.39,1.5,4.82,5.18,5.81,9.37,6.29,4.98.57,9.5,2.12,12.67,6.23,1.59,2.06,3.29,2.11,5.6,1.45,4.7-1.34,9.44-1.4,14.36-.66,6.77,1.02,12.8-1.14,18.63-6.14-5.2-1.74-9.62-3.29-11.99-7.77-.88-1.67-2.32-.86-3.61-.69-12.68,1.7-23.38-1.9-31.6-11.93-1.26-1.54-2.46-2.29-4.45-1.57-5.91,2.12-11.99,2.63-18.46,1.34Zm124.09-90.73c.41-7.16-.65-13.01-5.17-18.04-2.31-2.57-3.53-5.99-4.58-9.34-3.42-10.88-1.23-20.31,7.42-27.91,5.78-5.08,12.59-8.25,20.06-10.09,2.54-.62,5.29-.6,7.99-1.99-1.75-3.41-3.15-6.59-4.97-9.51-1.82-2.92-3.57-2.87-4.91.36-3.06,7.38-8.35,10.52-16.28,10.64-6.96.11-10.63,3.45-12.28,10.18-.97,3.95-2.93,6.95-5.92,9.68-4.14,3.78-4.57,6.61-1.84,11.36,2.15,3.73,2.76,7.51,2.33,11.71-.45,4.43-.75,8.9.26,13.32,1.89,8.2,3.97,9.81,12.43,9.62,1.71-.04,3.42,0,5.46,0Zm70.53,46.11c-4.46,4.46-10.38,7.2-14.69,11.95,5.07,5.11,15.74,6.23,20.26,2.59,5.59-4.51,10.52-9.73,15.92-14.44,5.77-5.04,10.44-11.34,16.22-17.8-5.09.58-9.37,2.28-12.63,1.12-3.7-1.32-6.32-.18-9.35.69-1.48.43-2.91,1.57-4.35,1.55-6.75-.08-11.71,3.35-16.23,7.76-.68.67-1.23,1.16-2.33,1.37-6.84,1.29-10.67,8.03-8.49,14.99,5.29-3.15,9.53-7.88,15.67-9.77Zm-105.83,9.28c-2.27,1.23-1.35,3.38-1.56,5.05-1.67,13.26-13.29,24.29-26.22,24.54-6.48.13-12.67-1.5-18.6-4.12-1.55-.68-2.97-1.89-4.87-.73-4.97,3.03-10.44,3.53-16.92,2.27,5.07,11.38,13.57,16.27,24.31,17.84,4.42.64,9.25,1,12.97-1.87,5.86-4.51,12.6-6.61,19.43-8.84,6.58-2.15,10.56-6.9,12.07-13.74,1.5-6.79.72-13.48-.61-20.4Zm-70.28-138.14c-3.1.55-4.91,1.53-5.08,5.07-.22,4.53-1.88,6-6.39,6.85-3.15.59-6.38.87-9.58,2.99,4.95,3.25,6.08,7.68,5.29,12.88-.29,1.93-.14,3.97,1.36,5.45,4.03,3.99,3.76,8.54,2.15,13.45-1.8,5.49-1.58,11.06-.21,16.63.52,2.11,1.29,3.5,3.87,3.23,6.13-.64,11.25,1.92,16.27,5.12,9.17,5.84,14.22,5.5,23.61-1.31-4.26-.94-7.99-2.55-11.22-5.08-4.16-3.26-8.65-5.89-13.68-7.52-5.08-1.64-8.02-5.17-9.41-10.2-2.27-8.26-3.31-16.69-3.8-25.22-.26-4.63.55-8.82,3.65-12.46,2.32-2.73,3.31-5.98,3.16-9.89Zm-105.61,206.56c5.38-7.72,13.68-10.16,22.22-12.33,5.66-1.43,9.42-5.99,15.07-9.12-8.05-3.19-5.81-8.97-5.17-14.37-8.66,3-13.28,10.6-20.38,16.27,1.34-6.97,8.11-8.64,10.54-13.73-2.87-1.26-5.22.98-8.12.29,4.82-3.72,11.62-.24,15.74-5.48-2.64-.69-4.88,1.21-7.41.64,1.22-1.87,3.49-1.29,4.74-3.04-1.6-2.2-3.41-2.7-5.9-1.34-1.86,1.02-3.81,2.17-5.85,2.53-9.19,1.64-11.9,9.55-14.74,16.36-2.61,6.25-1.38,13.53-1.65,20.37-.04.89-.28,1.9.9,2.94Zm14.61-136.13c-1.93-2.56-3.92-4.26-6.12-5.77-5.31-3.64-11.22-6.06-17.13-8.5-11.95-4.93-21.07-12.88-26.11-25.05-.36-.87-.47-1.91-1.86-2.53-2.02.77-4.19,1.75-6.02,3.85,5.54,6.02,7.43,12.96,7.15,20.95-.28,8.27,4.49,12.86,12.76,13.44,6.39.45,12.7,1.26,18.94,2.8,5.8,1.43,11.68,2.27,18.4.82Zm-11.9,85.23c2.88-4.91,2.76-4.75-1.11-7.57-2.4-1.75-5.18-2.15-8.91-2.95,5.37-1.09,5.68-1.47,5.16-5.21-.55-3.96-1.43-4.74-5.31-4.14-1.89.29-4.01.6-5.5,1.65-6.33,4.45-11.57,10.12-16.63,15.93-.91,1.04-2.58,1.83-2.02,3.72,4.77.86,9.86.85,14.11,2.74,10.29,4.59,21.01,4.81,31.86,4.67,2.66-.03,4.99-1.16,7.14-3.21-4.76-3.68-12.96.26-14.54-7.73-1.9-.06-2.23,1.85-4.24,2.12Zm120.99,4.99c-3.05-2.05-4.68-5.2-7.91-6.38-5.62-2.07-9.36-6.18-12.08-11.25-2.29-4.27-4.7-8.57-6.2-13.14-1.68-5.14-4.54-9.18-8.73-12.86-5.37,5.88-5.42,12.48-3,19.47,1.2,3.46,3.4,6.75,2.59,10.56-.64,2.99.6,5.06,2.61,6.62,7.34,5.7,15.33,9.9,25.01,9.59,2.54-.08,5.01-.37,7.71-2.62Zm-65.7-161.11c-.32,1.28.3,1.89.83,2.36,1.3,1.16,2.67,2.24,4.08,3.26,9.37,6.74,11.93,14.04,5.75,23.42-7.42,11.27-10.41,24.51-17.9,35.73,10.72.73,20.71-5.11,22.6-17.14.7-4.46,1.53-8.85,5.88-11.46,1.11-.66,1.37-1.84,1.42-3.03.26-6.5-.16-12.89-4.37-18.26-2.78-3.55-5.55-7-5.56-11.84,0-1.64-.95-2.5-2.63-2.3-3.42.4-6.78-.53-10.1-.74Zm68.49,51.08c-4.16-8.64-7.45-17.42-7.65-27.1-.02-.72-.52-1.44-.79-2.16-3.62-9.67-1.77-17.19,6.01-23.97,6.11-5.32,13.13-8.79,21.83-9.82-1.78-2.41-3.27-4.35-4.67-6.35-1.91-2.73-3.77-2.68-6.14-.39-3.81,3.67-8.44,6.12-13.28,8.21-3.2,1.38-6.28,2.97-9.23,4.89-3.3,2.15-4.9,5.04-4.48,8.78.7,6.2.01,12.42.62,18.6,1.23,12.52,7.52,22.09,17.79,29.32Zm-41.51-118.44c-2.9-4.65-6.57-4.83-10.21-3.82-4.28,1.18-7.44,4.07-9.16,8.24-.44,1.07.04,2.25.65,3.32,3.31,5.81,18.36,7.11,22.55,1.93,4.75-5.87,1.21-16.02-6.11-17.62-2.65-.58-5.3-1.16-7.88-1.98-7.58-2.4-9.98-1.39-13.22,5.85-5.15,11.51,2.97,26.01,14.61,24.93,10.29-.96,20.13-4.15,26.58-13.42,2.52-3.62,2.15-7.74-1.44-10.2-3.01-2.07-6.37-3.29-10.15-2.14.03,2.02.89,3.23,1.95,4.44,4.84,5.48,3.88,10.09-2.88,12.95-5.46,2.31-11.32,2.93-17.12,2.15-5.01-.68-8.33-4-9.91-8.78-1.23-3.69.17-7.82,3.18-9.06,3.2-1.32,6.54-2.41,9.92-3.17,3.97-.9,8.21,1.38,10.3,5.01,1.87,3.25,1.39,6.35-.7,9.26-2.34,3.26-5.85,3.79-11.71,1.97-1.96-.61-3.71-1.55-3.95-3.75-.29-2.61,1.62-3.76,3.7-4.55,3.3-1.24,6.77-1.56,11.02-1.55Zm45.18,210.27c5.19-.68,10.41-1.19,15.55-2.1,6.29-1.11,11.75-4.09,13.49-10.52,1.89-6.96-.04-13.48-5.28-18.71-4.68-4.67-10.6-7.08-16.78-8.97-1.33-.41-2.82-.61-3.97.17-4.92,3.37-10.82,4.21-16.13,6.53-5.12,2.24-8.41,6.07-8.55,12.08-.24,10.21,13.16,22.79,21.66,21.53Zm-50.1,24.79c-.76,1.41-1.39,2.6-2.04,3.78-3.43,6.26-3.86,6.54-10.85,5.47-9.34-1.43-17.68.53-25.05,6.63-1.45,1.2-1.87,2.06-1.37,3.85,1.48,5.24,5.6,7.82,11.87,6.39,5.91-1.35,11.81-2.02,17.84-2.28,6.01-.26,11.13-3.11,15.75-6.84.73-.59,2.04-1.52,1.47-2.24-3.46-4.35-1.27-11.41-7.62-14.77Zm8.77-64.32c-5.05,1.73-6.91,5.34-6.87,10.23.02,3.11.28,6.35-1.93,8.87-5.83,6.65-6.62,14.52-6.23,22.88.14,3.1.53,5.46,3.48,7.28,2.93,1.82,3.89,5.19,4.61,8.45,1.85,8.42,5.08,10.98,13.65,10.83,2.73-.05,5.4-.43,8.03-1.17,3.08-.86,3.6-2.24,1.88-4.79-.83-1.23-2.11-1.54-3.35-2.1-4.23-1.94-8.36-4.07-11.98-7.05-2.3-1.9-4.44-4.09-4.04-7.3.51-4.06-.71-7.62-2.21-11.22-2.59-6.23-3.2-12.88.76-18.36,3.7-5.12,4.27-10.41,4.22-16.54Zm-90.17,4.96c3.48.85,3.72-.61,3.59-2.86-.26-4.51,1.56-8.24,4.78-11.38.66-.65,2.3-1.05,1.24-2.78-1.93-.11-3.51,1.87-5.46,1.31-7.91-2.23-16.43-1.62-24.06-5.2-1.22-.57-2.97-.97-3.69.4-.75,1.42-2.83,2.6-1.78,4.57.71,1.32,1.72,2.76,2.98,3.47,4.84,2.71,6.32,6.38,3.43,11.7,3.08.33,5.88.56,3.95,4.43-.87,1.75.76,2.41,1.93,2.95,4.86,2.29,9.87,4.18,14.42,7.18,2.61,1.72,3.65.73,3.7-2.56.07-4.18-.49-8.09-5.02-11.23Zm81.29-115.35c-1.35,1.43-2.34,2.63-3.49,3.66-4.12,3.72-4.53,5.33-2.62,10.46.62,1.67,1.54,3.15,2.69,4.46,5.46,6.24,6.85,13.7,6.82,21.68-.01,2.72-.7,4.63-3.2,6.27-4.4,2.87-3.84,8.14-5.01,12.51-.27,1.01.83,1.61,1.78,1.99,4.1,1.65,8.18,3.31,12.7,4.18.17-2.76.14-4.91.49-7,.35-2.09,1.15-4.1,1.63-6.18.7-3.08,1.13-6.17-1.37-8.76-2.63-2.74-3.27-6.04-2.89-9.69.31-2.98-.1-5.69-2.36-8.06-3.57-3.74-3.27-4.59,1.72-6.36,1.46-.52,2.97-.9,4.47-1.25,1.36-.32,2.23-1.15,1.67-2.45-1.26-2.99-1.44-6.72-4.48-8.59-3.01-1.85-5.41-4.38-8.56-6.87Zm-55.93-8.32c.94,3.13,3.36,3.47,5.6,3.89,6.88,1.28,11.36,5.49,14.33,11.57,1.53,3.14,2.57,6.46,3.43,9.85.46,1.81.87,3.6,2.38,5.15,9.22,9.39,10.76,20.88,4.56,32.21q-1.8,3.28-.43,7.77c2.14-11.15,8.41-20.28,14.03-29.74.39-.66.63-1.41.86-2.15,1.83-5.79.54-10.28-4.4-13.81-4.12-2.94-8.55-5.42-9.93-10.88-.18-.73-1.4-1.24-2.19-1.77-2.42-1.62-4.66-3.43-6.62-5.62-2.9-3.24-7.94-2.86-10.86-6.17-3.52,1.75-7.06.2-10.76-.32Zm127.49,121.34c4.04,3.29,5.98,8.08,9.82,11.01,6.6,5.03,7.23,13.93,1.21,19.48-1.14,1.05-2.63,1.86-3.39,3.13-3.9,6.47-9.76,10.31-16.56,13.11-2.2.9-4.57,1.88-5.44,4.6.63.16,1.02.39,1.36.33,12.19-2.24,22.27-8.63,31.75-16.19,1.9-1.51,2.86-3.64,3.49-5.91.95-3.41,2.37-6.44,5.12-8.91,3.2-2.87,1.93-6.46.64-9.72-1.34-3.39-2.57-7.67-7.03-7.54-7.25.21-14.2-.52-20.96-3.38Zm113.51-27.96c8.08-1.01,14.34-4.11,15.46-12.98.54-4.24,1.82-8.32,2.58-12.48,1.43-7.79-.27-14.73-7.54-19.23-2.93-1.81-4.65-4.58-6.5-7.31-5.88-8.63-14.13-11.69-24.26-10.04-6.47,1.06-6.98,1.65-7.85,8.29-.11.86-.9,1.77.44,3.12,3.37,0,7.38.75,10.96-.15,8.74-2.2,12.27-1.59,17.69,5.25,2.57,3.24,5.36,6.01,8.88,8.23,3.66,2.31,6.56,6.14,5.09,10.24-1.85,5.15-2.91,10.98-6.84,15.1-3.4,3.55-5.45,7.87-8.1,11.96Zm-153.23-99.27c-22.24,2.59-43.15,1.33-59.45-16.81-3.56,8.26-2.23,13.97,4.44,18.55,10.24,7.03,21.74,10.32,34.11,9.02,8.13-.85,15.87-3.34,20.89-10.76Zm30.65,117.15c-4.78-2.12-9.32-3.11-13.99-2.78-6.78.48-13.12,2.38-16.93,8.59-2.02,3.29-4.65,5.52-7.94,7.39-5.14,2.91-7.41,7.86-6.18,13.34,2.13,9.51,6.16,18.34,12.41,25.98,1.15,1.4,2.63,2.58,5.02,3.53-3.47-8.63-3.22-17.47-7.47-25.43-3.7-6.93-.04-14.52,7.38-18.55,5.94-3.22,13-3.82,18.77-7.58.44-.29,1.19-.43,1.68-.28,3.59,1.12,5.33-1.09,7.26-4.2Zm151.69-49.02q2.27-6.13-2.86-9.89c-1.93-1.41-3.43-3.19-4.55-5.24-2.23-4.07-5.5-7.01-9.56-9.08-4.27-2.18-7.83-5.01-9.76-9.57-.53-1.24-1.26-2.68-2.96-2.22-6.82,1.85-12.99-1.21-19.4-2.43-1.53-.29-3.04-.9-4.57-.47-1.57.45-3.88.62-3.28,3.1.45,1.9,1.59,3.62,4.07,3.35.77-.08,1.53-.27,2.29-.45,11.37-2.59,20.16,1.47,26.94,10.53,1.74,2.33,3.21,4.89,5.69,6.54,9.46,6.3,11.52,14.93,8.35,25.45-1.17,3.87-2.12,7.9-1.19,12.32,4.38-7.84,12.59-11.23,19.32-17.01-3.19-1.85-5.67-3.28-8.53-4.94Zm-106.79,100.79c-3.47,3.23-7.46,4.57-8.05,9.48-1.33,10.94-7.89,17.24-18.49,19.7-3.19.74-6.47,1.46-9.26,3.32-1.88,1.25-4.47,2.27-4.29,5.02.19,2.93,2.82,4.09,5.12,5,8.73,3.43,26.41-.64,29.91-13.24,2.42-8.72,3.71-17.76,5.46-26.66.1-.53-.16-1.13-.39-2.62Zm22.2-82.1c-1.1-11.92,4.52-20.06,13.84-26.42,4.7-3.21,6.57-8.94,10.63-12.8.63-.6.81-1.74,1.07-2.67,1.06-3.75.3-4.79-3.52-4.06-8.73,1.65-16.66,5.16-23.03,11.5-5.62,5.61-7.47,12.57-6,20.29.99,5.17,3.01,9.97,7.01,14.16Zm-17.05-151.27c-1.87,2.58-3.48,4.74-5.01,6.95-2.26,3.26-5.13,5.31-9.29,4.75-6.07-.82-10.56,4.35-10.98,10.3-.34,4.82-.43,9.74.15,14.52.65,5.34,2.24,10.55,6.15,14.86-.53-3.36-.67-6.72.99-9.65,2.58-4.53,3.14-8.68.73-13.71-2.42-5.04-.12-9.6,5.04-11.85,3.2-1.4,6.72-2.54,10.16-1.42,5.39,1.75,10.41,2.04,15.19-1.56.58-.44,1.45-.54,2.21-.69,7.96-1.51,15.88-3.07,21.19,5.65.96,1.58,2.67,2.76,5.47,2.11-1.59-4.65-4.28-7.78-8.72-9.44-4.1-1.53-8.38-1.55-12.64-1.34-5.52.28-10.28-1.49-14.56-4.83-1.83-1.42-3.67-2.84-6.05-4.67ZM97.87,84.53c-5.77-5.09-7.41-5.41-12.52-2.37-6.41,3.8-13.24,5.29-20.63,4.37-1.64-.2-3.58-.98-4.57,1.25-2.21,4.95-6.01,9.02-7.66,14.32-1.4,4.53-3.93,8.39-8.12,11-4.85,3.01-4.83,3.08-3.28,8.62,1.15,4.12,2.63,8.13,4.82,11.81,2.06,3.47,4.52,6.61,8.51,9.18.68-6.05.54-11.15-1.88-16.32-4.21-8.99-2.33-17.45,4.85-24.36,5.28-5.07,11.48-9.16,18.6-10.3,7.62-1.22,13.7-6.11,21.88-7.2Zm49.08,157.96c-5.66,6.05-9.16,11.65-13.11,16.91-4.93,6.56-11.03,11.03-19.81,9.35-2.31-.44-3.27.47-3.97,2.24-1.04,2.62-1.66,5.59.48,7.66,2.31,2.24,5.07.87,7.48-.58.66-.4,1.34-.81,1.92-1.31,6.54-5.72,14.27-6.49,22.43-5.4,6.39.86,6.39.9,9.2-4.69.7-1.38,1.4-2.77,2-4.2,2.07-4.88,1.7-7.57-2.43-10.7-2.83-2.15-4.77-4.38-4.18-9.26Zm92.7-65.1c-3.63,1.8-6.79,2.54-10.16,2.38-3.48-.16-6.96-.28-10.44-.36-3.74-.08-7.31.73-10.63,2.46-1.56.81-3.24,1.8-3.06,3.84.21,2.29,2.31,2.38,3.98,2.52,2.55.23,5.01.79,7.27,1.86,2.57,1.23,4.79,1.35,7.63.34,5.72-2.03,10.51-.75,15.06,4.06,4.43,4.69,8.16,10.74,15.37,12.09,3.43-6.14,2.13-12.22-4.11-16.97-4.34-3.31-8.66-6.53-10.92-12.22Zm-71.98-103.54c-2.29-2.24-5.17-3.3-7.99-4.44-5.38-2.19-11.16-3.21-16.39-5.85-8.25-4.17-14.67-10.11-17.88-18.95-2.18-6-1.14-10.48,3.84-13.9,3.24-2.23,3.89-4.29,1.91-7.41-.57-.9-.14-2.4-1.81-2.84-3.24,1.89-6.89,3.11-10.57,4.32-4.83,1.59-6.92,4.54-6.39,8.4.53,3.83,1.4,7.61,1.97,11.44.38,2.55,1.69,4.37,3.96,5.35,7.65,3.31,13.49,9.02,19.39,14.61,8.5,8.04,19.16,8.77,29.96,9.28Zm-114.81,93.43c2.45,11.6,12.94,19.44,23.13,18.17,1.91-.24,3.87-.05,5.81-.16,7.55-.43,15.45-5.92,18.62-13.59-16.21,1.13-31.53-3.88-47.56-4.41Zm161.2,207.68c-4.24,1.91-4.23,1.91-3.6,6.35,2.94,20.76,8,41.02,14.36,60.98,2.87,9.01,5.33,18.16,8.88,26.94,5.27-1.87,5.34-1.89,3.88-6.27-5.81-17.45-11.11-35.06-15.54-52.91-2.88-11.63-5.34-23.37-7.99-35.08Zm-11.64-347.73c-.91,1.72-.2,3.16.62,4.46,4.4,6.98,2.58,13.29-1.99,19.31-4.77,6.28-10.86,10.99-17.7,14.79-4.03,2.24-8.09,4.42-12.33,6.73,4.69,2.62,9.64,2.62,15.65-.18,9.7-4.51,18.58-10.37,26.94-17.02,5.63-4.48,5.8-7.5,1-13-1.89-2.17-4.56-3.93-5.01-6.97-.65-4.39-3.58-6.46-7.18-8.13Zm14.42,324.56c-10.39,5.59-15.72,7-23.06,6.41-7.97-.64-8.37-1.41-4.32-8.3.05-.08-.14-.3-.22-.45-3.97,2.15-5.82,5.81-4.76,10.89.61,2.9.83,5.5.1,8.46-.88,3.59,1.15,7.04,3.89,7.28,8.03.69,15.91.13,23.23-3.75,3.37-1.79,4.84-4.33,3.17-8.38-5.07,1.88-10.03,4.33-15.7,3,7.62-2.68,17.51-2.48,17.66-15.15Zm-35.27-245.03c-3.64,3.15-5.37,6.61-5.23,10.91.27,8.74,1.54,17.35,3.76,25.79,1.02,3.88,3.1,7.19,7.2,8.49,6.75,2.15,12.61,5.8,18.23,10.03,3.06,2.31,6.55,3.7,10.92,2.41-4.63-5.36-9.17-9.87-14.75-13.57-10.24-6.81-16.58-16.47-19.03-28.75-.98-4.93-.39-9.89-1.1-15.31Zm87.33-56.04c-2.54,4.92-4.21,9.04-5.24,13.38-3.14,13.18-1.6,14.25,12.77,12.87,3.94-.38,7.92-1.29,11.96-1.69,7.03-.71,13.11-3.54,17.63-9.2-14.43-.34-29.46,2.64-37.12-15.36Zm-70.97,375.82h.51c0,13.98-.08,27.95.08,41.92.02,2.1-1.66,5.73,2.54,5.84,4.26.12,2.74-3.53,2.75-5.65.09-19.8.11-39.6-.06-59.39-.08-8.92-.61-17.84-1-26.76-.07-1.57.61-3.75-2.28-3.73-3.09.02-2.58,2.19-2.55,4.1,0,.39.02.78.02,1.16,0,14.17,0,28.33,0,42.5Zm71.03-322.19c-.08,4.71-3.81,7.33-4.01,10.77-.37,6.35-3.46,10.89-7.37,15.32-1.13,1.28-2.11,2.86-2.63,4.48-1.9,5.93-5.65,10.44-10.13,14.61-4.77,4.44-6.88,8.82-7.38,14.44,4.63-9.02,11.85-13.09,20.6-14.9,1.12-.23,2.21-.69,3.26-1.17,1.59-.73,2.44-1.87,1.73-3.71-2.03-5.27.69-9,4.28-12.23,1.96-1.76,3.54-3.67,3.95-6.23.67-4.21,2.53-7.58,5.62-10.53,2.56-2.44,2.04-5.32-1.16-6.94-1.9-.96-3.81-1.87-6.76-3.92Zm-16.5-25.23c3.54,2.7,6.28,4.6,7.85,7.61,2.73,5.26,7.39,7.89,12.88,9.08,9.21,1.99,17.79,1.8,23.53-7.51,1.7-2.76,3.96-5.16,6.01-7.79-1.32-.6-1.98.33-2.78.75-6.65,3.5-13.23,4.41-19.65-.5-1.32-1.01-2.64-1.42-4.33-1.01-3.08.74-6.17.14-9.26-.17-4.41-.44-8.82-1.19-14.25-.46Zm70.16,114.98c2.15,3.28,4.15,6.52,4.2,10.61.06,3.96,1.72,5.4,5.6,5.77,2.2.21,4.25-.41,6.23-1.21,5.4-2.18,9.92-6.09,15.5-7.94.81-.27,1.33-.84,1.41-1.66.47-4.84,3.12-8.83,5.36-13.05-3.84,1.95-7.51,3.56-11.71,3.51-8.96-.12-17.66,1.47-26.59,3.97ZM85.67,94.65c-1.76-2.55-4.17-2.65-6.72-2-8.05,2.06-15.35,5.62-20.95,11.87-5.34,5.96-7.06,12.96-3.64,20.48,2.24,4.92,3.41,9.91,2.84,15.23-.56,5.21,2.18,7.78,5.76,9.09,8.03-5.23,4.68-11.45,2.39-17.54-.95-2.53-1.97-5.05-3.11-7.5-1.62-3.49-1.92-6.96-.91-10.73,2.54-9.51,9.31-14.36,18.19-16.97,1.99-.59,4.19-.51,6.14-1.93Zm92.64-54.2c-8.61,10.78-20.05,11.03-31.14,13.06,4.2,6.88,9.82,11.97,16.92,15.47,6.35,3.13,11.23.84,13.06-6.13,1.8-6.86,1.15-13.83,1.16-22.4Zm-4.56,147.07c.71-5.29,2.89-9.87-1.65-14.18-1.95-1.85-3.27-4.32-4.32-6.85-2.86-6.86-2.63-7.41-8.52-9.74-2.66-1.05-5.15-4.29-9.14-2.09-2.86,1.58-6.7,2.48-6.41,6.1.25,3.07-.8,6.42.93,9.32,1.48,2.48,3.46,4.64,4.51,7.41.7,1.83,2.15,2.12,3.77,1.11,1.29-.81,2.76-1.45,3.4-2.99-.33-1.68-2.97-.78-2.99-2.98,3.24.49,6.35,2.85,10.02.91-2.36-3.79-5.93-6.32-8.12-9.91,5.72,5.31,13.03,9.27,14.53,18.05.33,1.9,1.32,4.01,3.97,5.85Zm145,2.42c3.21,1.19,5.23,1.21,6.98.68,8.47-2.55,17.18-2.94,25.91-3.37,2.97-.15,6.01-1.06,7.92-3.26,4.51-5.18,8.62-10.71,13.03-16.26-2-1.42-3.49-2.35-4.82-3.45-1.92-1.59-3.35-1.41-4.73.73-3.91,6.04-10.31,9.17-16.52,11.26-9.72,3.27-16.84,10.89-27.76,13.68Zm-25.83.39c3.92,15.25,8.99,20.06,22.28,21.34,7.42.71,9.74-1.76,8.9-9.27-.46-4.08-2.92-6.69-6.19-8.62-3.23-1.91-6.81-2.67-10.58-2.73-4.78-.08-9.58.42-14.42-.71Zm36.86-8.57c6.37-2.94,7.83-4.67,13.1-15.41-15.38-2.57-30.84-5-40.23-20.48-.13,2.04.03,3.76-.38,5.32-1.39,5.21,1.24,9.38,3.19,13.77,2.53,5.68,7.6,5.09,12.43,5.17.77.01,1.54.16,2.3.3,6.9,1.31,9.45,4.33,9.6,11.33Zm-109.08-52.93c-2.66-1.01-5.32-1.99-7.96-3.02-3.93-1.53-6.95-4.27-9.44-7.55-3.99-5.27-3.53-9.09,1.51-13.49.75-.65,1.33-1.35,1.87-2.15,3.44-5.14,8.66-6.94,14.45-7.51,2.12-.21,4.27-.05,6.41-.04,1.37,0,2.84.17,3.25-1.62.4-1.77.42-3.52-1.32-4.69-1.32-.88-2.81-1.2-4.4-1.35-10.31-.96-24.03,6.3-28.99,15.36-2.73,4.98-2.93,9.91-.26,14.99,3.95,7.5,16.05,13.39,24.88,11.08Zm-134.97-37.65c1.63,2.69,3.4,4.21,6.31,4.02,2.01-.13,3.91.61,5.31,1.99,2.44,2.39,5.06,3.16,8.43,2.28,3.3-.86,5.61,1.04,7.07,3.78,1.38,2.6,1.8,5.49,1.56,8.46-.14,1.73-.64,3.56.29,5.14,2.97,5.01,5.46,10.25,7.93,15.61.48-12.69.11-25.13-6.17-36.57-2.38-4.34-6.14-7.11-10.85-8.07-6.8-1.4-13.46-.87-19.87,3.37Zm73.01-1.38c9.82,8.18,17.42,8.52,26.04,1.65,4.28-3.41,8.77-6.27,13.85-8.35,2.11-.86,3.95-2.41,5.87-3.69.81-.54,1.82-1.38,1.4-2.31-1.23-2.72-.3-5.25.05-7.92.19-1.47-.98-3.63-2.76-2.69-4.71,2.49-10.66,3.8-13.35,8.7-4.32,7.87-11.08,11.44-19.25,13.51-3.55.9-7.18.81-11.85,1.09Zm-11.7,92.38c2.82,3.99.1,8.24,2.47,11.72,3.6,5.27,3.91,10.85,1.3,16.53-1.65,3.59-.6,6.06,2.15,8.31,2.59-1.89,2.04-4.38,1.99-6.61-.13-6.47,2.19-11.26,8.55-13.66,3.38-1.28,4.83-3.92,3.96-7.38-.9-3.62-1.35-7.24-1.12-10.93.15-2.34-.96-3.14-3.06-3.14-1.74,0-3.58-.18-5.05.92-3.01,2.25-6.53,3.21-11.2,4.24Zm56.09,5.69c-10.99-6.78-24.66-4.18-31.72,5.16-5.75,7.61-6.44,18.85-1.11,23.88,1.12-6.77,4.81-11.38,10.86-14.17.97-.45,1.84-1.51,2.36-2.49,3.92-7.52,10.48-11.05,19.62-12.37Zm-50.09-98.84c-5.59-1.26-10.58-2.85-15.25-5.24-4.33-2.21-9.13-4.32-11.19-8.9-2.22-4.93-6.38-6.91-10.39-9.36-1.76,1.38-2.77,3.06-3.64,4.77-.72,1.42-1.01,3.23,1.1,3.79,4.34,1.16,5.8,4.51,7.32,8.27,3.56,8.8,16.35,14.59,25.36,11.81,2.61-.81,5.09-1.83,6.7-5.13Zm36.68,146.08c.31,10.53,4.88,17.7,13.77,22.31,2.7,1.4,4.96.85,5.82-1.45,2.17-5.81,7.14-7.77,12.08-10.01,4.81-2.18,8.67-5.4,10.91-9.76-14.07,5.02-28.15,10.58-42.57-1.1Zm-121.72-105.53c-.16,3.25,1.34,5.6,1.99,8.14.68,2.64,2.22,3,4.78,2.63,5.45-.78,10.62-1.8,14.55-6.18,1.44-1.61,3.69-2.37,5.75-2.58,9.33-.94,16.89-13.69,16.74-22.51-.04-2.18-.35-4.27-1.64-6.05-.98-1.36-2.47-2.17-4.04-1.37-1.41.72-.29,2.02-.11,3.08,1.52,9.07-.84,16.05-8.02,19.35-9.32,4.28-18.72,9.53-30,5.5ZM236.26,28.06c-2.29,2.22-1.64,4.67-1.84,6.93-.15,1.73.13,3.57-.37,5.18-1.83,5.94-1.85,7.72.52,13.07.39.88.85,1.79.97,2.73.62,4.89,2.68,9.24,4.81,13.61,4.17,8.56,4.09,8.6,13.49,6.84.29-.05.51-.42.78-.65-.03-1.25-.8-2.17-1.56-3.01-9.82-10.76-14.1-23.37-12.78-37.88.28-3.08-1.27-5.08-4.01-6.81Zm33.87,70.13c.55,3.49,1.97,6.02,5.22,7.19,2.53.91,4.42,2.33,5.01,5.14.42,2.02,1.88,2.09,3.6,1.82,1.91-.3,3.86-.46,5.8-.53,4.53-.16,7.66-2.38,9.7-6.33.8-1.55,1.56-3.14,2.54-4.57.9-1.32,2.34-2.66,3.89-1.57,2.89,2.03,4.16-.63,6.02-1.62,1.88-1,3.27-2.15,1.76-4.54-1.47-2.34-3.11-2.32-5.35-1-11.84,6.96-24.54,8.95-38.19,6.02Zm-74.68,288.14c-.81.03-1.03.63-1.24,1.14-10.5,25.07-18.87,50.89-26.96,76.81-.29.91-.42,1.9-.46,2.86-.04,1.1.63,1.79,1.69,2.03.99.23,1.99.2,2.52-.82.44-.86.74-1.8,1.01-2.73,6.66-23.11,14.51-45.84,22.42-68.55,1.22-3.51,1.73-7.07,1.02-10.75Zm-.77-6.22c-4.37-1.49-5.3,1.22-6.34,3.78-6.53,16.16-12.25,32.61-17.86,49.1-3.24,9.52-6.24,19.13-9.34,28.7-.48,1.48-1.13,3.1,1,3.86,2.39.86,2.49-1.3,2.92-2.57,1.47-4.4,2.7-8.89,4.11-13.31,7.48-23.41,15.61-46.58,25.5-69.57Zm-.27-325.56c4.2-3.29,7.39-7,8.72-12.12.56-2.18.87-4.28-.29-6.16-2.87-4.65-3.59-9.57-3.17-14.97.24-3.01-.33-6.43-3.94-7.68-3.82-1.33-7.94-1.44-11.8-2.79-1.45-.51-2.87.9-3.71,2.27-.61,1-.18,2.07.72,2.47,3.27,1.46,4.96,4.99,8.15,6.34,3.95,1.66,5.05,4.61,4.54,8.38-.69,5.04-.45,10.04.39,15,.52,3.06.86,6.07.39,9.26Zm40.87,239.61c-2.7.23-4.07,2.75-6.25,3.38-4.3,1.24-5.64,4.64-7.01,8.42-3.56,9.81-3.89,20.04-4.61,30.6,3.76-3.32,6.95-6.9,10.97-9.55,4.47-2.94,4.99-4.7,3.16-9.67-2.22-6.03-1.57-11.77,1.36-17.37.89-1.69,2.27-3.17,2.38-5.82Zm-109.68-145.33c-4.44.51-8.5.74-12.47,1.48-6.69,1.25-11.49,7.25-11.62,14.02-.09,4.93.82,5.65,5.84,4.76,3.06-.54,6.02-1.38,8.85-2.69,8.32-3.83,10.28-7.33,9.39-17.58Zm8.98-123.76c.69-.74,1.19-1.09,1.45-1.58,3.74-6.89,6.94-8.77,15.91-5.46,4.32,1.59,9.08,1.3,13.2,4.08,2.99,2.01,6.56.47,7.2-2,1.07-4.07-.83-7.97-4.55-8.49-2.79-.39-5.16-1.63-7.68-2.6-3.07-1.18-6.06-1.44-8.95.32-4.09,2.49-8.38,3.68-13.28,3.39-3.97-.23-6,2.27-5.91,6.24.05,2.18.64,4.17,2.59,6.09Zm166.06,185.54c-2.83-2.7-5.02-5.6-6.36-9.05-.81-2.1-2-2.49-4.02-1.34-7.17,4.09-11.67,10.66-16.2,17.21-.6.86-.7,1.73-.06,2.67,2.36,3.44,4.68,6.91,7.24,10.7,2.66-4.82,3.85-9.62,6.62-13.63,2.97-4.28,9.05-2.65,12.78-6.56Zm-33.99,37.01c3.13-.65,5.66-2.04,8.05-3.69,6.74-4.62,7.03-5.89,3-13.01-.95-1.68-1.77-3.47-2.92-5-4.67-6.22-8.56-12.84-11.16-20.2-.75-2.13-1.75-4.26-4.03-5.67-.48,1.82-.6,3.57-1.38,4.96-1.46,2.61-.51,3.84,1.63,5.57,7.75,6.25,10.84,18.12,6.97,27.35-1.38,3.29-1.86,6.13-.15,9.69Zm-156.16-61.35c1.24.82,1.98.36,2.67.14,7.17-2.27,13.26,1.18,19.51,3.69,1.72.69,2.42,2.32,3.02,4.06,1.51,4.41,8.63,13.47,12.83,16.55,2.52-5.99,3.08-11.96-1.83-16.8-5.12-5.05-10.95-9.46-18.05-11.39-6.35-1.72-12.67-1.88-18.16,3.73Zm126.98-14.59c16.78-2.58,30.83-12.16,27.56-23.22-3.76,2.65-8.16,3.45-12.34,4.89-8.43,2.91-12.75,9.24-15.22,18.33ZM133.32,30.48c-6.68,3.88-8.46,7.91-5.75,14.23,4.78,11.14,13.76,17.22,25.43,19.78-5.64-5.13-8.38-12.57-14.36-17.38-1.98-1.6-2.87-4.06-3.82-6.44-1.26-3.15-.58-6.53-1.5-10.18Zm75.25,228.63c22.01,9.82,38.25-5.17,37.92-17.86-5.9,3.7-11.24,7.89-17.26,11.03-6.24,3.25-13.36,3.77-20.66,6.83Zm47.09-188.47c1.07-5.41,1.6-10.75,1.61-16.21.01-10.54,2.87-19.98,13.43-25.08,0,0-.13-.28-.29-.63-.55-.23-1.23-.73-1.96-.79-2.12-.19-4.26-.32-6.39-.27-8.45.22-11.94,5.44-8.58,13.11,1.6,3.64,2.15,7.17-.02,10.54-4.57,7.1-1.33,13.19,2.2,19.32Zm-68.35,100.65c1.78,10.7,2.79,11.38,12.2,9.19.56-.13,1.14-.21,1.7-.36,8.99-2.44,17.99-4.32,27.44-2.95,2.56.37,5.56.49,8.09-1.77-3.63-1.44-7.13-2.25-9.99-4.08-5.3-3.39-10.4-2.75-15.29.14-7.81,4.6-15.51,5.64-24.16-.16Zm80.12,4.12c-2.05.56-2.83,3.11-5.66,1.99,8.6-4.22,2.73-10.82,4.19-16.78-2.32,2.2-3.76,4.16-5.69,5.28-3.56,2.06-4.26,5.44-4.48,8.87-.09,1.52.24,3.02-.72,4.35-1.45,2.01-.32,3.21,1.28,4.26,1.3.86,2.47,1.82,3.55,2.97,1.33,1.42,2.04,4.19,4.93,2.87,2.11-.96,4.76-1.58,5.86-3.55.86-1.54,2.88-3.86-.24-5.88-1.34-.87-1.99-2.8-3.04-4.37Zm-61.23,203.07c-1.26,7.02-.87,13.86.85,20.66,1.62,6.37,2.96,12.81,4.44,19.21,2.4,10.36,4.8,20.72,7.29,31.05.24.98.46,2.57,2.05,2.3,1.55-.26,1.35-1.58,1.12-2.76-.34-1.71-.61-3.43-.99-5.12-3.58-16.04-7.13-32.09-10.8-48.12-1.31-5.73-1.35-11.74-3.97-17.23Zm-13.71-78.31c.9,10.3,1.75,20.13,2.62,29.96.68,7.72,1.39,15.45,2.1,23.17.12,1.31,0,2.96,2.07,2.74,1.55-.16,2.43-1.09,2.39-2.73-.03-1.16-.03-2.33-.08-3.49-.57-14.55-2.34-29-3.67-43.48-.29-3.1-1.74-4.97-5.43-6.16Zm63.17-53.3c12.81-8.84,13.53-28.58.87-35.05,3,6.19,3.07,11.58-2.4,16.04-1.17.95-2.06,2.72-1.51,4.21,1.75,4.76,1.43,9.95,3.04,14.8Zm-115.94-84.66c-8.86,2.38-17.79,3.91-26.46,7.4-7.12,2.86-12.89,6.08-16.71,12.87,3.65-.18,6.01-2.59,8.52-4.59,6.34-5.07,13.15-6.85,21.15-4.3,7.71,2.45,13.56-2.61,13.5-11.37ZM116.74,23.42c6.41-1.96,12.33-3.03,15.09-9.61,1.06-2.53,3.99-3.73,6.92-3.42,4.06.43,7.61-.7,11.09-2.66,2.35-1.33,5.01-2.69,7.73-1.53,5.52,2.36,12.45,1.67,16.39,7.52.57.84,1.65,1.09,2.57.48.72-.48.66-1.39.53-2.14-.6-3.62-3.12-5.17-6.43-5.75-4.18-.73-8.53-.76-12.43-2.7-3.63-1.81-7.04-1.57-10.46.59-3.36,2.13-6.96,3.3-11.04,2.54-2.06-.38-3.91.24-4.93,2.22-2,3.89-5.29,5.95-9.33,7.3-2.97.99-5.54,2.71-5.69,7.15Zm3.66,194.99c8.59-.81,14.37-6.57,14.65-14.12.42-11.37-2.47-14.18-13.78-13.45-3.2.21-6.09.84-7.35,4.3,1.21.86,2.4.52,3.54.53,4.19.03,8.53.31,10.53,4.61,2.15,4.63-.13,8.63-3.12,12.23-1.46,1.76-3.45,3.12-4.46,5.89Zm100.67,82.66c-4.02-.9-4.72,1.02-5.44,3.22-4.36,13.27-8.37,26.64-11.06,40.37-.64,3.27-.76,6.61,1.01,9.91,5.25-17.8,9.56-35.72,15.5-53.5Zm114.37-44.85c4.02,1.96,8.26,3.34,10.42.9,3-3.39,7.44-4.77,10.3-8.73-2.81-1.2-5.48-2.27-8.08-3.48-2.76-1.28-6.05-2.46-8.2-.19-2.32,2.45-4.64-1.73-6.57.92-1.63,2.25-4.23,3.8-5.12,6.67,5.84,2.72,11.32.84,16.82-.26-2.5,2.36-5.79,2.38-9.58,4.17Zm-226.98-60.07c-5.14-.31-9.28,1.31-11.39,6.12-2.45,5.58-4.08,11.34-.85,17.22,1.07,1.95,2.99,3.19,5.08,3.59,4.71.9,9.4.94,14.47-2.04-6.56-1.29-12.66-2.48-14.25-9.18-1.56-6.58,2.08-11.43,6.94-15.71Zm129.97-87.13c-.57-5.56-1.38-9.66-6.49-11.04-5.8-1.57-11.53-1.35-17.14.76-3.37,1.27-6.47,3.05-7.09,6.98-.64,4.03,1.96,6.66,4.93,8.59,4.22,2.73,8.69,5.11,13.13,7.49,4.38,2.36,5.63,1.4,5.74-4.49-1.34.32-2.6.74-3.89.91-6.04.78-13.98-3.4-16.02-8.4-1.03-2.53-1.51-5.63,1.61-6.31,3.39-.74,6.49-2.45,10.05-2.61,6.23-.29,10.54,3.05,15.18,8.13Zm47.86,76.89c-8.3,8.14-15.29,16.92-14.91,30.53,1.95-2.57,3.35-4.34,4.67-6.16,3.09-4.24,6.49-8.19,10.81-11.22,5.15-3.61,5.19-3.58,2.08-9.36-.72-1.34-1.13-2.91-2.65-3.8Zm-93.46,171.09c1.32-1.49,1.75-1.75,1.75-2.02.7-20.95-4.41-40.61-13.25-59.43-.79-1.69-1.98-2.72-4.64-2.06,10.84,19.5,14.2,40.77,16.13,63.51Zm23.52-158.46c8.06,2.73,16.02,2.67,23.18,5.64,1.35.56,3.06.54,4.57-1.08-1.23-3.84-5.69-4.8-7.7-8.05-1.92-3.11-5.16-3.67-8.69-3.2-4.24.56-7.63,2.52-11.37,6.69Zm-20.85,206.33c-.97.23-1.13,1.08-1.34,1.77-1.5,5.08-1.48,10.36-2.03,15.57-1.07,10.03-2.01,20.08-2.94,30.13-.13,1.44-.71,3.56,1.44,3.83,2.5.32,2.47-1.92,2.6-3.64.32-3.87.54-7.75.84-11.62.93-11.99,2.36-23.96,1.42-36.05ZM124.86,114.57c0,2.27-.02,4,0,5.73.11,7.75.34,15.51-1.63,23.11-.28,1.07-.87,2.36.69,2.93,1.25.45,2.22-.27,3.02-1.2.25-.3.52-.58.74-.89,5.11-7.22,5.83-23.53-2.83-29.68Zm156.86-60.98c0-1.87-.15-3.59.04-5.27.29-2.56,1.68-4.81,4.37-4.49,3.92.48,7.71,1.97,10.92,4.36,1.4,1.05,1.58,2.96,1.65,4.78.06,1.51-1.18,2.89-.35,4.61,2.87.18,3.45-1.65,3.74-3.93.81-6.22-3.51-9.55-7.43-12.94-4.05-3.5-9.43-3.4-12.64-.19-3.53,3.53-3.68,8.07-.29,13.06Zm-75.9,350.27c.86,17.6,5.01,34.54,9.6,51.6.94-.39,1.58-.93,1.5-1.33-3.4-16.82-7.88-33.4-11.1-50.27Zm-102.68-194.88c-.4,2.47.51,4,1.55,5.36,3.16,4.12,10.59,5.47,13.23,2.49,2.76-3.11,3.86-8.35,2.26-10.72-1.87-2.77-5.57-2.98-10.56-.58-.7.33-1.41.64-2.09,1-1.77.92-2.06,2.34-.86,3.79,1.04,1.26,2.12,2.81,4.35,2.27-.08-.96-.37-1.92-.21-2.79.52-2.85,2.91-3.38,5.22-3.72,1.76-.26,3.07.79,3.54,2.39.62,2.13-.65,3.69-2.17,4.98-3.03,2.57-6.84,2.64-10.1.01-1.47-1.19-2.61-2.78-4.17-4.48Zm20.73,1.1c5.18-6.53,2.22-10.96-1.71-11.72-3.96-.77-8.13-.86-12.05.5-2.94,1.02-5.16,2.92-5.69,6.55,4.27-.68,7.31-3.95,11.28-3.72,4.66.28,7.18,3.33,8.17,8.39Zm51.95,196.34c-6.05,11.19-12.12,22.36-18.09,33.58-.53,1-2.19,2.53-.4,3.46,2.09,1.08,2.42-1.28,3.05-2.49,4.41-8.36,8.78-16.75,13.09-25.16,1.48-2.88,2.76-5.86,2.35-9.38Zm109.99-223.34c-3.61-.19-6.32-.99-8.1,1.38-3.23,4.33-6.2,8.87-9.25,13.34-.75,1.09-.78,2.2.44,2.99,1.13.73,2.21.61,3-.56,3.97-5.86,8.65-11.19,13.9-17.15Zm-82.06,150.61c4-10.83,4.21-22.33,5.89-33.58-3.44,10.93-7.58,21.74-5.89,33.58Zm22.8-208.56c-6.57-4.27-13.08-6.85-18.76-12.13.66,9.69,9.36,15.32,18.76,12.13Zm16.86,54.81c.91,1.19,1.19,1.72,1.61,2.09,5.17,4.56,11.05,8.36,14.36,14.82.81,1.58,2.96,2.48,4.67,3.83-2.89-10.91-9.07-18.07-20.64-20.74Zm7.36-81.6c5.31,3.39,9.87,7.47,12.97,12.89,1.64-.89,1.97-2.27,2.41-3.5,1.85-5.18.71-7.04-4.92-7.62-3.48-.36-6.75-1.55-10.46-1.77Zm-6.4,218.7c6.9-2.15,13.67-3.96,20.36-6.27-2.24-.92-4.64-.32-6.65-1.44-4.02-2.24-6.89-.49-9.43,2.57-1.43,1.71-2.85,3.43-4.28,5.15Zm-73.28-148.96c4.66,7.98,8.59,8.61,13.4,2.17-5.76-3.47-8.43-3.9-13.4-2.17Zm10.59-129.72c-.41-.06-.82-.13-1.22-.19v23.94c3.75-8.35,2.74-16.04,1.22-23.75Zm9.33,274.06c.33-4.74-.7-8.33-.8-11.94-.13-4.44-2.18-6.02-6.59-6.36,2.44,6.04,4.72,11.68,7.4,18.29Zm14.89-11.88c-5.78.45-6.33.6-5.88,3.03.8,4.3.32,8.82,2.09,13.96,1.37-6.15,2.52-11.33,3.79-16.99Zm129.57-152.06c-2.65-3.17-5.28-5.76-9.25-6.69-2.47-.58-3.23.56-3.08,2.73.14,2.01.47,4.42,3.29,3.2,3.17-1.38,5.55,2.86,9.04.76Zm-168.25,133.59c-.55.3-1.1.6-1.65.9,4.3,7.56,8.6,15.12,12.89,22.68-2.36-8.62-6.24-16.4-11.25-23.58Zm116.98-231.01c1.86,5.68,5.16,8.47,8.64,7.76,2.53-.52,3.17-2.36,2.85-4.91-3.98-.32-8.18.33-11.49-2.85Zm37.54,88.6c6.12-1.17,9.65,2.36,14.1,5.47-.77-5.29-3.37-7.67-7.13-8.74-2.46-.69-4.97-.59-6.97,3.27Zm-111.65,212.48c2.57-.64,3.94-1.85,4.12-4.04.46-5.54.84-11.09,1.26-16.63-2.34,6.73-4.41,13.45-5.37,20.67Zm-33.71-167.71c2.59.17,4.29-1.27,6.22-1.92,2.5-.84,1.49-2.72.93-4.31-.57-1.62-1.48-2.49-3.49-1.85-4.41,1.41-3.22,4.93-3.66,8.09Zm140.46-36.41c.97-5.4,1.87-10.28,6.82-13.69-8.43-.29-10.56,4.25-6.82,13.69Zm-175.44,21.22c-1.7,1.88-3.92,3.25-1.94,5.62,2.05,2.44,4.18,5.03,8.63,4.98-2.44-3.86-4.47-7.06-6.7-10.6Zm21.49,115.54c2.34,5.97,4.47,12.06,9.76,16.21-2.32-5.98-5.48-11.44-9.76-16.21ZM97.14,122.02c7.88-5.47,9.38-13.61,4.25-20.16,2.23,7.11.73,13.52-4.25,20.16Z"/>
        <path class="cls-1" d="m265.57,319.09c8.15,15.06,9.64,31.4,9.14,48.12-1.63-16.31-2.74-32.72-9.14-48.12Z"/>
        <path class="cls-1" d="m354.32,279.15c-13.71-3.81-27.55-6.79-42.32-6.93,9.75-2.4,33.08,1.4,42.32,6.93Z"/>
        <path class="cls-1" d="m197.11,231.82c-5.55-4.9-5.87-15.44.32-19.76,6.53-4.56,14.06-7.54,22.42-4.79,6.53,2.15,10.53,8.6,10.11,15.97-.38,6.6-4.4,11.09-11.56,12.59-5.36,1.13-10.77,1.42-16.1-.23-2.17-.67-4.57-1.15-5.27-3.87,5.76,2.94,11.97,2.57,18.11,2.32,9.57-.39,13.91-6.1,12.12-15.58-.99-5.24-5.65-9.23-11.52-9.86-7-.75-12.36,1.86-14.49,7.24,1.81-.98,3.43-2,5.16-2.77,5.45-2.42,10.63-1.52,15.4,1.76,3.51,2.42,4.85,7.22,2.84,10.86-3.13,5.68-8.42,7.69-14.65,7.59-5.79-.09-9.19-2.54-11.28-8.26-.85-2.34-1.36-4.8-2.18-7.77q-2.17,6.4.56,14.56Zm11.85-11.83c1.36.42,1.84-.29,2.49-.6,4.65-2.3,7.46-1.86,8.9,1.36,1.56,3.49-.2,6.21-4.97,8.21-3.25,1.37-6.68.98-11.21,1.08,6.93,2.4,13.54.98,17.04-3.06,2.05-2.36,2.84-5.03,1.4-8.02-1.46-3.04-4.09-3.85-7.21-3.71-3.03.14-4.93,1.84-6.44,4.73Zm-1.08,8.31c-4.23-6.54-.81-10.6,2.92-14.64-4.16,1.81-9.44,2.51-10.03,7.76-.42,3.73,3.36,4.96,7.11,6.88Z"/>
      </g>
    </g>
  </g>
</svg>